Bodoni-11-Fatface.ufo
<glyph name="exclam" format="2">
  <advance width="1801"/>
  <unicode hex="0021"/>
  <outline>
    <contour>
      <point x="1384" y="2535.49" type="curve" smooth="yes"/>
      <point x="1338.51" y="2060"/>
      <point x="937.841" y="1672"/>
      <point x="937.841" y="1262" type="curve"/>
      <point x="856.161" y="1262" type="line"/>
      <point x="856.161" y="1672"/>
      <point x="455.489" y="2060"/>
      <point x="410.001" y="2535.49" type="curve" smooth="yes"/>
      <point x="406.001" y="2564"/>
      <point x="410.001" y="2588.98"/>
      <point x="410.001" y="2613.49" type="curve" smooth="yes"/>
      <point x="410.001" y="2883.49"/>
      <point x="582.001" y="3104.51"/>
      <point x="897.489" y="3104.51" type="curve" smooth="yes"/>
      <point x="1212.98" y="3104.51"/>
      <point x="1388.51" y="2883.49"/>
      <point x="1388.51" y="2613.49" type="curve" smooth="yes"/>
      <point x="1388.51" y="2588.98"/>
      <point x="1388" y="2564"/>
    </contour>
    <component base="period" xOffset="246"/>
  </outline>
</glyph>
<glyph name="dollar" format="2">
  <advance width="1269"/>
  <unicode hex="0024"/>
  <outline>
    <contour>
      <point x="630" y="1660" type="line"/>
      <point x="680" y="1660" type="line"/>
      <point x="680" y="-160" type="line"/>
      <point x="630" y="-160" type="line"/>
    </contour>
    <contour>
      <point x="490" y="1660" type="line"/>
      <point x="540" y="1660" type="line"/>
      <point x="540" y="-160" type="line"/>
      <point x="490" y="-160" type="line"/>
    </contour>
    <contour>
      <point x="998" y="1336" type="curve"/>
      <point x="936" y="1404"/>
      <point x="802" y="1474"/>
      <point x="614" y="1474" type="curve" smooth="yes"/>
      <point x="482" y="1474"/>
      <point x="380" y="1408"/>
      <point x="380" y="1290" type="curve" smooth="yes"/>
      <point x="380" y="980"/>
      <point x="1190" y="1060"/>
      <point x="1190" y="460" type="curve" smooth="yes"/>
      <point x="1190" y="180"/>
      <point x="972" y="-30"/>
      <point x="630" y="-30" type="curve" smooth="yes"/>
      <point x="238" y="-30"/>
      <point x="50" y="160"/>
      <point x="50" y="330" type="curve" smooth="yes"/>
      <point x="50" y="462"/>
      <point x="132" y="554"/>
      <point x="260" y="554" type="curve" smooth="yes"/>
      <point x="360" y="554"/>
      <point x="448" y="470"/>
      <point x="448" y="342" type="curve" smooth="yes"/>
      <point x="448" y="222"/>
      <point x="322" y="172"/>
      <point x="234" y="172" type="curve" smooth="yes"/>
      <point x="202" y="172"/>
      <point x="162" y="180"/>
      <point x="150" y="186" type="curve"/>
      <point x="232" y="110"/>
      <point x="352" y="14"/>
      <point x="610" y="14" type="curve" smooth="yes"/>
      <point x="822" y="14"/>
      <point x="910" y="112"/>
      <point x="910" y="250" type="curve" smooth="yes"/>
      <point x="910" y="600"/>
      <point x="100" y="450"/>
      <point x="100" y="1090" type="curve" smooth="yes"/>
      <point x="100" y="1350"/>
      <point x="372" y="1520"/>
      <point x="614" y="1520" type="curve" smooth="yes"/>
      <point x="850" y="1520"/>
      <point x="1110" y="1412"/>
      <point x="1110" y="1210" type="curve" smooth="yes"/>
      <point x="1110" y="1078"/>
      <point x="1038" y="1006"/>
      <point x="910" y="1006" type="curve" smooth="yes"/>
      <point x="810" y="1006"/>
      <point x="722" y="1066"/>
      <point x="722" y="1188" type="curve" smooth="yes"/>
      <point x="722" y="1302"/>
      <point x="808" y="1368"/>
      <point x="896" y="1368" type="curve" smooth="yes"/>
      <point x="918" y="1368"/>
      <point x="960" y="1362"/>
    </contour>
  </outline>
</glyph>
<glyph name="percent" format="2">
  <advance width="2079"/>
  <unicode hex="0025"/>
  <outline>
    <contour>
      <point x="1450" y="420" type="curve" smooth="yes"/>
      <point x="1450" y="96"/>
      <point x="1482" y="20"/>
      <point x="1530" y="20" type="curve" smooth="yes"/>
      <point x="1578" y="20"/>
      <point x="1610" y="96"/>
      <point x="1610" y="420" type="curve" smooth="yes"/>
      <point x="1610" y="744"/>
      <point x="1578" y="821"/>
      <point x="1530" y="821" type="curve" smooth="yes"/>
      <point x="1482" y="821"/>
      <point x="1450" y="744"/>
    </contour>
    <contour>
      <point x="1050" y="420" type="curve" smooth="yes"/>
      <point x="1050" y="706"/>
      <point x="1304" y="860"/>
      <point x="1530" y="860" type="curve" smooth="yes"/>
      <point x="1756" y="860"/>
      <point x="2010" y="706"/>
      <point x="2010" y="420" type="curve" smooth="yes"/>
      <point x="2010" y="134"/>
      <point x="1716" y="-20"/>
      <point x="1530" y="-20" type="curve" smooth="yes"/>
      <point x="1304" y="-20"/>
      <point x="1050" y="134"/>
    </contour>
    <contour>
      <point x="1534" y="1500" type="line"/>
      <point x="1579" y="1500" type="line"/>
      <point x="546" y="0" type="line"/>
      <point x="501" y="0" type="line"/>
    </contour>
    <contour>
      <point x="470" y="1080" type="curve" smooth="yes"/>
      <point x="470" y="756"/>
      <point x="502" y="679"/>
      <point x="550" y="679" type="curve" smooth="yes"/>
      <point x="598" y="679"/>
      <point x="630" y="756"/>
      <point x="630" y="1080" type="curve" smooth="yes"/>
      <point x="630" y="1404"/>
      <point x="598" y="1480"/>
      <point x="550" y="1480" type="curve" smooth="yes"/>
      <point x="502" y="1480"/>
      <point x="470" y="1404"/>
    </contour>
    <contour>
      <point x="70" y="1080" type="curve" smooth="yes"/>
      <point x="70" y="1366"/>
      <point x="324" y="1520"/>
      <point x="550" y="1520" type="curve" smooth="yes"/>
      <point x="776" y="1520"/>
      <point x="1030" y="1366"/>
      <point x="1030" y="1080" type="curve" smooth="yes"/>
      <point x="1030" y="794"/>
      <point x="736" y="640"/>
      <point x="550" y="640" type="curve" smooth="yes"/>
      <point x="324" y="640"/>
      <point x="70" y="794"/>
    </contour>
  </outline>
</glyph>
<glyph name="ampersand" format="2">
  <advance width="1837"/>
  <unicode hex="0026"/>
  <outline>
    <contour>
      <point x="930" y="974" type="curve"/>
      <point x="909" y="1004" type="line"/>
      <point x="927" y="1022"/>
      <point x="962" y="1040"/>
      <point x="962" y="1290" type="curve" smooth="yes"/>
      <point x="962" y="1411"/>
      <point x="942" y="1486"/>
      <point x="868" y="1486" type="curve" smooth="yes"/>
      <point x="804" y="1486"/>
      <point x="772" y="1413"/>
      <point x="772" y="1340" type="curve" smooth="yes"/>
      <point x="772" y="1250"/>
      <point x="842" y="1108"/>
      <point x="928" y="980" type="curve" smooth="yes"/>
      <point x="1550" y="39" type="line"/>
      <point x="1798" y="39" type="line"/>
      <point x="1798" y="0" type="line"/>
      <point x="1090" y="0" type="line"/>
      <point x="428" y="980" type="line" smooth="yes"/>
      <point x="376" y="1056"/>
      <point x="336" y="1156"/>
      <point x="336" y="1226" type="curve" smooth="yes"/>
      <point x="336" y="1406"/>
      <point x="546" y="1520"/>
      <point x="878" y="1520" type="curve" smooth="yes"/>
      <point x="1192" y="1520"/>
      <point x="1370" y="1434"/>
      <point x="1370" y="1294" type="curve" smooth="yes"/>
      <point x="1370" y="1140"/>
      <point x="1172" y="1028"/>
    </contour>
    <contour>
      <point x="523" y="845" type="curve"/>
      <point x="545" y="815" type="line"/>
      <point x="525" y="802"/>
      <point x="505" y="757"/>
      <point x="505" y="654" type="curve" smooth="yes"/>
      <point x="505" y="402"/>
      <point x="606" y="86"/>
      <point x="858" y="86" type="curve" smooth="yes"/>
      <point x="1152" y="86"/>
      <point x="1448" y="444"/>
      <point x="1495" y="910" type="curve"/>
      <point x="1534" y="910" type="line"/>
      <point x="1490" y="471"/>
      <point x="1204" y="-20"/>
      <point x="598" y="-20" type="curve" smooth="yes"/>
      <point x="232" y="-20"/>
      <point x="75" y="154"/>
      <point x="75" y="360" type="curve" smooth="yes"/>
      <point x="75" y="697"/>
      <point x="426" y="803"/>
    </contour>
    <contour>
      <point x="1248" y="920" type="line"/>
      <point x="1728" y="920" type="line"/>
      <point x="1728" y="881" type="line"/>
      <point x="1248" y="881" type="line"/>
    </contour>
  </outline>
</glyph>
<glyph name="parenleft" format="2">
  <advance width="771"/>
  <unicode hex="0028"/>
  <outline>
    <contour>
      <point x="745" y="-313" type="curve"/>
      <point x="726" y="-340" type="line"/>
      <point x="400" y="-200"/>
      <point x="130" y="184"/>
      <point x="130" y="650" type="curve" smooth="yes"/>
      <point x="130" y="1116"/>
      <point x="400" y="1460"/>
      <point x="726" y="1600" type="curve"/>
      <point x="745" y="1573" type="line"/>
      <point x="597" y="1473"/>
      <point x="560" y="1034"/>
      <point x="560" y="650" type="curve" smooth="yes"/>
      <point x="560" y="266"/>
      <point x="597" y="-213"/>
    </contour>
  </outline>
</glyph>
<glyph name="plus" format="2">
  <advance width="1059"/>
  <unicode hex="002B"/>
  <outline>
    <contour>
      <point x="510" y="220" type="line"/>
      <point x="510" y="1040" type="line"/>
      <point x="550" y="1040" type="line"/>
      <point x="550" y="220" type="line"/>
    </contour>
    <contour>
      <point x="120" y="652" type="line"/>
      <point x="940" y="652" type="line"/>
      <point x="940" y="612" type="line"/>
      <point x="120" y="612" type="line"/>
    </contour>
  </outline>
</glyph>
<glyph name="slash" format="2">
  <advance width="1039"/>
  <unicode hex="002F"/>
  <outline>
    <contour>
      <point x="921" y="1560" type="line"/>
      <point x="960" y="1560" type="line"/>
      <point x="119" y="-300" type="line"/>
      <point x="80" y="-300" type="line"/>
    </contour>
  </outline>
</glyph>
<glyph name="two" format="2">
  <advance width="1299"/>
  <unicode hex="0032"/>
  <outline>
    <contour>
      <point x="1230" y="0" type="line"/>
      <point x="80" y="0" type="line"/>
      <point x="80" y="270" type="line"/>
      <point x="482" y="530" type="line" smooth="yes"/>
      <point x="652" y="640"/>
      <point x="748" y="772"/>
      <point x="748" y="1020" type="curve" smooth="yes"/>
      <point x="748" y="1288"/>
      <point x="622" y="1408"/>
      <point x="466" y="1408" type="curve" smooth="yes"/>
      <point x="318" y="1408"/>
      <point x="158" y="1294"/>
      <point x="150" y="1120" type="curve"/>
      <point x="172" y="1206"/>
      <point x="264" y="1284"/>
      <point x="358" y="1284" type="curve" smooth="yes"/>
      <point x="496" y="1284"/>
      <point x="596" y="1182"/>
      <point x="596" y="1052" type="curve" smooth="yes"/>
      <point x="596" y="912"/>
      <point x="460" y="814"/>
      <point x="330" y="814" type="curve" smooth="yes"/>
      <point x="200" y="814"/>
      <point x="98" y="914"/>
      <point x="98" y="1098" type="curve" smooth="yes"/>
      <point x="98" y="1332"/>
      <point x="316" y="1520"/>
      <point x="650" y="1520" type="curve" smooth="yes"/>
      <point x="992" y="1520"/>
      <point x="1188" y="1360"/>
      <point x="1188" y="1140" type="curve" smooth="yes"/>
      <point x="1188" y="880"/>
      <point x="958" y="766"/>
      <point x="770" y="650" type="curve" smooth="yes"/>
      <point x="398" y="420" type="line"/>
      <point x="1190" y="420" type="line"/>
      <point x="1190" y="570" type="line"/>
      <point x="1230" y="570" type="line"/>
    </contour>
  </outline>
</glyph>
<glyph name="three" format="2">
  <advance width="1241"/>
  <unicode hex="0033"/>
  <outline>
    <contour>
      <point x="1162" y="420" type="curve" smooth="yes"/>
      <point x="1162" y="140"/>
      <point x="884" y="-20"/>
      <point x="562" y="-20" type="curve" smooth="yes"/>
      <point x="218" y="-20"/>
      <point x="50" y="188"/>
      <point x="50" y="372" type="curve" smooth="yes"/>
      <point x="50" y="514"/>
      <point x="150" y="612"/>
      <point x="280" y="612" type="curve" smooth="yes"/>
      <point x="400" y="612"/>
      <point x="488" y="524"/>
      <point x="488" y="392" type="curve" smooth="yes"/>
      <point x="488" y="268"/>
      <point x="382" y="180"/>
      <point x="264" y="180" type="curve" smooth="yes"/>
      <point x="202" y="180"/>
      <point x="168" y="206"/>
      <point x="160" y="208" type="curve"/>
      <point x="230" y="112"/>
      <point x="332" y="46"/>
      <point x="482" y="46" type="curve" smooth="yes"/>
      <point x="680" y="46"/>
      <point x="720" y="172"/>
      <point x="720" y="420" type="curve" smooth="yes"/>
      <point x="720" y="628"/>
      <point x="664" y="792"/>
      <point x="426" y="792" type="curve"/>
      <point x="426" y="820" type="line"/>
      <point x="948" y="820"/>
      <point x="1162" y="660"/>
    </contour>
    <contour>
      <point x="426" y="802" type="curve"/>
      <point x="426" y="830" type="line"/>
      <point x="644" y="830"/>
      <point x="660" y="1034"/>
      <point x="660" y="1182" type="curve" smooth="yes"/>
      <point x="660" y="1350"/>
      <point x="610" y="1456"/>
      <point x="492" y="1456" type="curve" smooth="yes"/>
      <point x="408" y="1456"/>
      <point x="350" y="1424"/>
      <point x="300" y="1394" type="curve"/>
      <point x="310" y="1396"/>
      <point x="322" y="1398"/>
      <point x="344" y="1398" type="curve" smooth="yes"/>
      <point x="442" y="1398"/>
      <point x="538" y="1318"/>
      <point x="538" y="1198" type="curve" smooth="yes"/>
      <point x="538" y="1068"/>
      <point x="434" y="976"/>
      <point x="324" y="976" type="curve" smooth="yes"/>
      <point x="204" y="976"/>
      <point x="110" y="1048"/>
      <point x="110" y="1180" type="curve" smooth="yes"/>
      <point x="110" y="1384"/>
      <point x="358" y="1518"/>
      <point x="562" y="1518" type="curve" smooth="yes"/>
      <point x="864" y="1518"/>
      <point x="1102" y="1382"/>
      <point x="1102" y="1162" type="curve" smooth="yes"/>
      <point x="1102" y="962"/>
      <point x="928" y="802"/>
    </contour>
  </outline>
</glyph>
<glyph name="four" format="2">
  <advance width="1369"/>
  <unicode hex="0034"/>
  <outline>
    <contour>
      <point x="1280" y="40" type="line"/>
      <point x="1280" y="0" type="line"/>
      <point x="510" y="0" type="line"/>
      <point x="510" y="40" type="line"/>
      <point x="700" y="40" type="line"/>
      <point x="700" y="1244" type="line"/>
      <point x="146" y="450" type="line"/>
      <point x="1350" y="450" type="line"/>
      <point x="1350" y="410" type="line"/>
      <point x="70" y="410" type="line"/>
      <point x="830" y="1500" type="line"/>
      <point x="1130" y="1500" type="line"/>
      <point x="1130" y="40" type="line"/>
    </contour>
  </outline>
</glyph>
<glyph name="five" format="2">
  <advance width="1139"/>
  <unicode hex="0035"/>
  <outline>
    <contour>
      <point x="1010" y="1080" type="line"/>
      <point x="134" y="1080" type="line"/>
      <point x="134" y="674" type="line"/>
      <point x="94" y="674" type="line"/>
      <point x="94" y="1500" type="line"/>
      <point x="970" y="1500" type="line"/>
      <point x="970" y="1610" type="line"/>
      <point x="1010" y="1610" type="line"/>
    </contour>
    <contour>
      <point x="170" y="88" type="curve"/>
      <point x="190" y="62"/>
      <point x="284" y="30"/>
      <point x="352" y="30" type="curve" smooth="yes"/>
      <point x="530" y="30"/>
      <point x="630" y="162"/>
      <point x="630" y="430" type="curve" smooth="yes"/>
      <point x="630" y="738"/>
      <point x="558" y="816"/>
      <point x="400" y="816" type="curve" smooth="yes"/>
      <point x="290" y="816"/>
      <point x="198" y="760"/>
      <point x="148" y="674" type="curve"/>
      <point x="114" y="674" type="line"/>
      <point x="166" y="788"/>
      <point x="282" y="880"/>
      <point x="504" y="880" type="curve" smooth="yes"/>
      <point x="846" y="880"/>
      <point x="1080" y="730"/>
      <point x="1080" y="430" type="curve" smooth="yes"/>
      <point x="1080" y="150"/>
      <point x="794" y="-20"/>
      <point x="432" y="-20" type="curve" smooth="yes"/>
      <point x="208" y="-20"/>
      <point x="-20" y="74"/>
      <point x="-20" y="298" type="curve" smooth="yes"/>
      <point x="-20" y="440"/>
      <point x="84" y="542"/>
      <point x="214" y="542" type="curve" smooth="yes"/>
      <point x="344" y="542"/>
      <point x="448" y="460"/>
      <point x="448" y="320" type="curve" smooth="yes"/>
      <point x="448" y="190"/>
      <point x="332" y="80"/>
      <point x="214" y="80" type="curve" smooth="yes"/>
      <point x="192" y="80"/>
      <point x="182" y="84"/>
    </contour>
  </outline>
</glyph>
<glyph name="six" format="2">
  <advance width="1319"/>
  <unicode hex="0036"/>
  <outline>
    <contour>
      <point x="800" y="500" type="curve" smooth="yes"/>
      <point x="800" y="868"/>
      <point x="756" y="922"/>
      <point x="678" y="922" type="curve" smooth="yes"/>
      <point x="612" y="922"/>
      <point x="560" y="860"/>
      <point x="560" y="560" type="curve"/>
      <point x="532" y="560" type="line"/>
      <point x="532" y="814"/>
      <point x="540" y="990"/>
      <point x="762" y="990" type="curve" smooth="yes"/>
      <point x="1004" y="990"/>
      <point x="1260" y="840"/>
      <point x="1260" y="500" type="curve" smooth="yes"/>
      <point x="1260" y="200"/>
      <point x="1030" y="-20"/>
      <point x="688" y="-20" type="curve" smooth="yes"/>
      <point x="346" y="-20"/>
      <point x="100" y="200"/>
      <point x="100" y="620" type="curve" smooth="yes"/>
      <point x="100" y="1106"/>
      <point x="504" y="1520"/>
      <point x="1110" y="1520" type="curve"/>
      <point x="1110" y="1486" type="line"/>
      <point x="742" y="1486"/>
      <point x="550" y="1084"/>
      <point x="550" y="740" type="curve"/>
      <point x="560" y="560" type="line"/>
      <point x="560" y="192"/>
      <point x="596" y="20"/>
      <point x="694" y="20" type="curve" smooth="yes"/>
      <point x="792" y="20"/>
      <point x="800" y="172"/>
    </contour>
  </outline>
</glyph>
<glyph name="seven" format="2">
  <advance width="1149"/>
  <unicode hex="0037"/>
  <outline>
    <contour>
      <point x="256" y="212" type="curve" smooth="yes"/>
      <point x="256" y="370"/>
      <point x="456" y="544"/>
      <point x="618" y="756" type="curve" smooth="yes"/>
      <point x="682" y="838"/>
      <point x="720" y="896"/>
      <point x="822" y="1070" type="curve"/>
      <point x="120" y="1070" type="line"/>
      <point x="120" y="920" type="line"/>
      <point x="80" y="920" type="line"/>
      <point x="80" y="1500" type="line"/>
      <point x="1130" y="1500" type="line"/>
      <point x="1130" y="1500"/>
      <point x="868" y="1024"/>
      <point x="694" y="776" type="curve" smooth="yes"/>
      <point x="588" y="624"/>
      <point x="580" y="612"/>
      <point x="580" y="544" type="curve" smooth="yes"/>
      <point x="580" y="438"/>
      <point x="756" y="408"/>
      <point x="756" y="216" type="curve" smooth="yes"/>
      <point x="756" y="82"/>
      <point x="656" y="-20"/>
      <point x="508" y="-20" type="curve" smooth="yes"/>
      <point x="370" y="-20"/>
      <point x="256" y="54"/>
    </contour>
  </outline>
</glyph>
<glyph name="less" format="2">
  <advance width="1119"/>
  <unicode hex="003C"/>
  <outline>
    <contour>
      <point x="120" y="758" type="line"/>
      <point x="120" y="798" type="line"/>
      <point x="1000" y="1209" type="line"/>
      <point x="1000" y="1169" type="line"/>
    </contour>
    <contour>
      <point x="120" y="752" type="line"/>
      <point x="120" y="792" type="line"/>
      <point x="1000" y="381" type="line"/>
      <point x="1000" y="341" type="line"/>
    </contour>
  </outline>
</glyph>
<glyph name="question" format="2">
  <advance width="1239"/>
  <unicode hex="003F"/>
  <outline>
    <contour>
      <point x="494" y="738" type="line"/>
      <point x="648" y="800"/>
      <point x="698" y="934"/>
      <point x="698" y="1120" type="curve" smooth="yes"/>
      <point x="698" y="1308"/>
      <point x="670" y="1458"/>
      <point x="512" y="1458" type="curve" smooth="yes"/>
      <point x="384" y="1458"/>
      <point x="258" y="1368"/>
      <point x="218" y="1292" type="curve"/>
      <point x="226" y="1294"/>
      <point x="262" y="1320"/>
      <point x="324" y="1320" type="curve" smooth="yes"/>
      <point x="442" y="1320"/>
      <point x="548" y="1250"/>
      <point x="548" y="1130" type="curve" smooth="yes"/>
      <point x="548" y="1000"/>
      <point x="464" y="918"/>
      <point x="334" y="918" type="curve" smooth="yes"/>
      <point x="194" y="918"/>
      <point x="120" y="1010"/>
      <point x="120" y="1142" type="curve" smooth="yes"/>
      <point x="120" y="1326"/>
      <point x="308" y="1520"/>
      <point x="612" y="1520" type="curve" smooth="yes"/>
      <point x="934" y="1520"/>
      <point x="1140" y="1360"/>
      <point x="1140" y="1120" type="curve" smooth="yes"/>
      <point x="1140" y="890"/>
      <point x="916" y="730"/>
      <point x="534" y="712" type="curve"/>
      <point x="534" y="558" type="line"/>
      <point x="494" y="558" type="line"/>
    </contour>
    <component base="period" xOffset="258"/>
  </outline>
</glyph>
<glyph name="at" format="2">
  <advance width="4136"/>
  <unicode hex="0040"/>
  <outline>
    <contour>
      <point x="2283.9" y="1484.35" type="curve" smooth="yes"/>
      <point x="2283.9" y="820.352"/>
      <point x="2002.99" y="286.512"/>
      <point x="1470.99" y="286.512" type="curve" smooth="yes"/>
      <point x="1085.49" y="286.512"/>
      <point x="836" y="516"/>
      <point x="836" y="942" type="curve" smooth="yes"/>
      <point x="836" y="1556"/>
      <point x="1261.02" y="2166.51"/>
      <point x="1811.49" y="2166.51" type="curve" smooth="yes"/>
      <point x="2204.5" y="2166.51"/>
      <point x="2283.9" y="1820.35"/>
    </contour>
    <contour>
      <point x="2208" y="1417.49" type="curve" smooth="yes"/>
      <point x="2208" y="1589.49"/>
      <point x="2197.76" y="1861.18"/>
      <point x="2097.52" y="1861.18" type="curve" smooth="yes"/>
      <point x="1962.03" y="1861.18"/>
      <point x="1740.51" y="1526.3"/>
      <point x="1740.51" y="1018.3" type="curve" smooth="yes"/>
      <point x="1740.51" y="744.304"/>
      <point x="1802.51" y="596.304"/>
      <point x="1900.51" y="596.304" type="curve" smooth="yes"/>
      <point x="2027.02" y="596.304"/>
      <point x="2208" y="933.504"/>
    </contour>
    <contour>
      <point x="2130" y="860" type="curve" smooth="yes"/>
      <point x="2424.51" y="2130" type="line"/>
      <point x="3284.51" y="2130" type="line"/>
      <point x="2982.19" y="829.744" type="line" smooth="yes"/>
      <point x="2936.7" y="629.232"/>
      <point x="2885.92" y="442.56"/>
      <point x="3047.2" y="442.56" type="curve" smooth="yes"/>
      <point x="3415.52" y="442.56"/>
      <point x="3831.3" y="945.12"/>
      <point x="3831.3" y="1642" type="curve" smooth="yes"/>
      <point x="3831.3" y="2359.94"/>
      <point x="3393.7" y="3155.3"/>
      <point x="2393.95" y="3155.3" type="curve" smooth="yes"/>
      <point x="1246.3" y="3155.3"/>
      <point x="306.192" y="2105.65"/>
      <point x="306.192" y="864" type="curve" smooth="yes"/>
      <point x="306.192" y="-384.72"/>
      <point x="1004.21" y="-795.808"/>
      <point x="1716" y="-795.808" type="curve" smooth="yes"/>
      <point x="2368.74" y="-795.808"/>
      <point x="2808.1" y="-610.944"/>
      <point x="3162.94" y="-211.408" type="curve"/>
      <point x="3215.49" y="-262" type="line"/>
      <point x="2871.49" y="-663.488"/>
      <point x="2384" y="-876.512"/>
      <point x="1716" y="-876.512" type="curve" smooth="yes"/>
      <point x="966" y="-876.512"/>
      <point x="225.488" y="-421.904"/>
      <point x="225.488" y="864" type="curve" smooth="yes"/>
      <point x="225.488" y="2146"/>
      <point x="1196" y="3236"/>
      <point x="2396" y="3236" type="curve" smooth="yes"/>
      <point x="3432" y="3236"/>
      <point x="3912" y="2392"/>
      <point x="3912" y="1642" type="curve" smooth="yes"/>
      <point x="3912" y="946"/>
      <point x="3530.98" y="278.512"/>
      <point x="2707.49" y="278.512" type="curve" smooth="yes"/>
      <point x="2097.49" y="278.512"/>
      <point x="2072.51" y="606"/>
    </contour>
  </outline>
</glyph>
<glyph name="A" format="2">
  <advance width="1659"/>
  <unicode hex="0041"/>
  <outline>
    <contour>
      <point x="30" y="40" type="line"/>
      <point x="470" y="40" type="line"/>
      <point x="470" y="0" type="line"/>
      <point x="30" y="0" type="line"/>
    </contour>
    <contour>
      <point x="850" y="40" type="line"/>
      <point x="1630" y="40" type="line"/>
      <point x="1630" y="0" type="line"/>
      <point x="850" y="0" type="line"/>
    </contour>
    <contour>
      <point x="370" y="510" type="line"/>
      <point x="1030" y="510" type="line"/>
      <point x="1030" y="470" type="line"/>
      <point x="370" y="470" type="line"/>
    </contour>
    <contour>
      <point x="624" y="1126" type="line"/>
      <point x="228" y="0" type="line"/>
      <point x="178" y="0" type="line"/>
      <point x="720" y="1530" type="line"/>
      <point x="960" y="1530" type="line"/>
      <point x="1490" y="0" type="line"/>
      <point x="990" y="0" type="line"/>
    </contour>
  </outline>
</glyph>
<glyph name="B" format="2">
  <advance width="1529"/>
  <unicode hex="0042"/>
  <outline>
    <contour>
      <point x="810" y="760" type="curve" smooth="yes"/>
      <point x="550" y="760" type="line"/>
      <point x="550" y="790" type="line"/>
      <point x="730" y="790" type="line" smooth="yes"/>
      <point x="862" y="790"/>
      <point x="950" y="872"/>
      <point x="950" y="1110" type="curve" smooth="yes"/>
      <point x="950" y="1348"/>
      <point x="862" y="1460"/>
      <point x="730" y="1460" type="curve" smooth="yes"/>
      <point x="30" y="1460" type="line"/>
      <point x="30" y="1500" type="line"/>
      <point x="810" y="1500" type="line" smooth="yes"/>
      <point x="1172" y="1500"/>
      <point x="1390" y="1390"/>
      <point x="1390" y="1130" type="curve" smooth="yes"/>
      <point x="1390" y="890"/>
      <point x="1192" y="760"/>
    </contour>
    <contour>
      <point x="210" y="1500" type="line"/>
      <point x="640" y="1500" type="line"/>
      <point x="640" y="0" type="line"/>
      <point x="210" y="0" type="line"/>
    </contour>
    <contour>
      <point x="850" y="0" type="curve" smooth="yes"/>
      <point x="30" y="0" type="line"/>
      <point x="30" y="40" type="line"/>
      <point x="750" y="40" type="line" smooth="yes"/>
      <point x="902" y="40"/>
      <point x="990" y="182"/>
      <point x="990" y="420" type="curve" smooth="yes"/>
      <point x="990" y="658"/>
      <point x="902" y="750"/>
      <point x="750" y="750" type="curve" smooth="yes"/>
      <point x="550" y="750" type="line"/>
      <point x="550" y="780" type="line"/>
      <point x="850" y="780" type="line" smooth="yes"/>
      <point x="1192" y="780"/>
      <point x="1450" y="680"/>
      <point x="1450" y="380" type="curve" smooth="yes"/>
      <point x="1450" y="100"/>
      <point x="1232" y="0"/>
    </contour>
  </outline>
</glyph>
<glyph name="C" format="2">
  <advance width="1469"/>
  <unicode hex="0043"/>
  <outline>
    <contour>
      <point x="1340" y="1500" type="line"/>
      <point x="1370" y="1500" type="line"/>
      <point x="1370" y="1030" type="line"/>
      <point x="1279" y="1152"/>
      <point x="1203" y="1293"/>
      <point x="1100" y="1400" type="curve"/>
    </contour>
    <contour>
      <point x="1370" y="1030" type="curve"/>
      <point x="1330" y="1030" type="line"/>
      <point x="1170" y="1294"/>
      <point x="1068" y="1460"/>
      <point x="860" y="1460" type="curve" smooth="yes"/>
      <point x="612" y="1460"/>
      <point x="550" y="1114"/>
      <point x="550" y="750" type="curve" smooth="yes"/>
      <point x="550" y="386"/>
      <point x="612" y="40"/>
      <point x="860" y="40" type="curve" smooth="yes"/>
      <point x="1128" y="40"/>
      <point x="1190" y="226"/>
      <point x="1350" y="470" type="curve"/>
      <point x="1390" y="470" type="line"/>
      <point x="1270" y="184"/>
      <point x="1126" y="-20"/>
      <point x="840" y="-20" type="curve" smooth="yes"/>
      <point x="354" y="-20"/>
      <point x="80" y="304"/>
      <point x="80" y="750" type="curve" smooth="yes"/>
      <point x="80" y="1196"/>
      <point x="354" y="1520"/>
      <point x="840" y="1520" type="curve" smooth="yes"/>
      <point x="1096" y="1520"/>
      <point x="1230" y="1316"/>
    </contour>
    <contour>
      <point x="1390" y="470" type="curve"/>
      <point x="1390" y="0" type="line"/>
      <point x="1360" y="0" type="line"/>
      <point x="1120" y="100" type="line"/>
      <point x="1223" y="214"/>
      <point x="1309" y="340"/>
    </contour>
  </outline>
</glyph>
<glyph name="E" format="2">
  <advance width="1339"/>
  <unicode hex="0045"/>
  <outline>
    <contour>
      <point x="1240" y="450" type="curve"/>
      <point x="1280" y="450" type="line"/>
      <point x="1280" y="0" type="line"/>
      <point x="30" y="0" type="line"/>
      <point x="30" y="40" type="line"/>
      <point x="740" y="40" type="line" smooth="yes"/>
      <point x="1014" y="40"/>
      <point x="1180" y="196"/>
    </contour>
    <contour>
      <point x="210" y="1500" type="line"/>
      <point x="640" y="1500" type="line"/>
      <point x="640" y="0" type="line"/>
      <point x="210" y="0" type="line"/>
    </contour>
    <contour>
      <point x="30" y="1500" type="line"/>
      <point x="1260" y="1500" type="line"/>
      <point x="1260" y="1090" type="line"/>
      <point x="1220" y="1090" type="line"/>
      <point x="1160" y="1304"/>
      <point x="994" y="1460"/>
      <point x="760" y="1460" type="curve" smooth="yes"/>
      <point x="30" y="1460" type="line"/>
    </contour>
    <contour>
      <point x="940" y="496" type="line"/>
      <point x="880" y="630"/>
      <point x="774" y="756"/>
      <point x="660" y="756" type="curve" smooth="yes"/>
      <point x="540" y="756" type="line"/>
      <point x="540" y="796" type="line"/>
      <point x="660" y="796" type="line" smooth="yes"/>
      <point x="774" y="796"/>
      <point x="880" y="912"/>
      <point x="940" y="1046" type="curve"/>
      <point x="980" y="1046" type="line"/>
      <point x="980" y="496" type="line"/>
    </contour>
  </outline>
</glyph>
<glyph name="F" format="2">
  <advance width="1279"/>
  <unicode hex="0046"/>
  <outline>
    <contour>
      <point x="30" y="1500" type="line"/>
      <point x="1220" y="1500" type="line"/>
      <point x="1220" y="1090" type="line"/>
      <point x="1180" y="1090" type="line"/>
      <point x="1120" y="1304"/>
      <point x="994" y="1460"/>
      <point x="780" y="1460" type="curve" smooth="yes"/>
      <point x="30" y="1460" type="line"/>
    </contour>
    <contour>
      <point x="30" y="40" type="line"/>
      <point x="840" y="40" type="line"/>
      <point x="840" y="0" type="line"/>
      <point x="30" y="0" type="line"/>
    </contour>
    <contour>
      <point x="210" y="1500" type="line"/>
      <point x="640" y="1500" type="line"/>
      <point x="640" y="0" type="line"/>
      <point x="210" y="0" type="line"/>
    </contour>
    <contour>
      <point x="920" y="456" type="line"/>
      <point x="860" y="590"/>
      <point x="784" y="726"/>
      <point x="650" y="726" type="curve" smooth="yes"/>
      <point x="520" y="726" type="line"/>
      <point x="520" y="766" type="line"/>
      <point x="650" y="766" type="line" smooth="yes"/>
      <point x="784" y="766"/>
      <point x="860" y="892"/>
      <point x="920" y="1026" type="curve"/>
      <point x="960" y="1026" type="line"/>
      <point x="960" y="456" type="line"/>
    </contour>
  </outline>
</glyph>
<glyph name="H" format="2">
  <advance width="1699"/>
  <unicode hex="0048"/>
  <outline>
    <contour>
      <point x="600" y="760" type="line"/>
      <point x="1100" y="760" type="line"/>
      <point x="1100" y="720" type="line"/>
      <point x="600" y="720" type="line"/>
    </contour>
    <contour>
      <point x="900" y="40" type="line"/>
      <point x="1670" y="40" type="line"/>
      <point x="1670" y="0" type="line"/>
      <point x="900" y="0" type="line"/>
    </contour>
    <contour>
      <point x="30" y="40" type="line"/>
      <point x="800" y="40" type="line"/>
      <point x="800" y="0" type="line"/>
      <point x="30" y="0" type="line"/>
    </contour>
    <contour>
      <point x="900" y="1500" type="line"/>
      <point x="1670" y="1500" type="line"/>
      <point x="1670" y="1460" type="line"/>
      <point x="900" y="1460" type="line"/>
    </contour>
    <contour>
      <point x="30" y="1500" type="line"/>
      <point x="800" y="1500" type="line"/>
      <point x="800" y="1460" type="line"/>
      <point x="30" y="1460" type="line"/>
    </contour>
    <contour>
      <point x="1060" y="1500" type="line"/>
      <point x="1490" y="1500" type="line"/>
      <point x="1490" y="0" type="line"/>
      <point x="1060" y="0" type="line"/>
    </contour>
    <contour>
      <point x="210" y="1500" type="line"/>
      <point x="640" y="1500" type="line"/>
      <point x="640" y="0" type="line"/>
      <point x="210" y="0" type="line"/>
    </contour>
  </outline>
</glyph>
<glyph name="J" format="2">
  <advance width="2625"/>
  <unicode hex="004A"/>
  <outline>
    <contour>
      <point x="741" y="3072" type="line"/>
      <point x="2564" y="3072" type="line"/>
      <point x="2564" y="2990" type="line"/>
      <point x="741" y="2990" type="line"/>
    </contour>
    <contour>
      <point x="1274" y="3072" type="line"/>
      <point x="2154" y="3072" type="line"/>
      <point x="2154" y="696" type="line"/>
      <point x="1908" y="204"/>
      <point x="1626" y="-123"/>
      <point x="926" y="-123" type="curve" smooth="yes"/>
      <point x="406" y="-123"/>
      <point x="41" y="102"/>
      <point x="41" y="512" type="curve" smooth="yes"/>
      <point x="41" y="807"/>
      <point x="274" y="1024"/>
      <point x="561" y="1024" type="curve" smooth="yes"/>
      <point x="827" y="1024"/>
      <point x="1036" y="828"/>
      <point x="1036" y="537" type="curve" smooth="yes"/>
      <point x="1036" y="291"/>
      <point x="840" y="49"/>
      <point x="582" y="49" type="curve" smooth="yes"/>
      <point x="541" y="49"/>
      <point x="491" y="50"/>
      <point x="430" y="70" type="curve"/>
      <point x="549" y="-8"/>
      <point x="738" y="-33"/>
      <point x="885" y="-33" type="curve" smooth="yes"/>
      <point x="1176" y="-33"/>
      <point x="1274" y="205"/>
      <point x="1274" y="778" type="curve" smooth="yes"/>
    </contour>
  </outline>
</glyph>
<glyph name="K" format="2">
  <advance width="1709"/>
  <unicode hex="004B"/>
  <outline>
    <contour>
      <point x="30" y="40" type="line"/>
      <point x="800" y="40" type="line"/>
      <point x="800" y="0" type="line"/>
      <point x="30" y="0" type="line"/>
    </contour>
    <contour>
      <point x="30" y="1500" type="line"/>
      <point x="840" y="1500" type="line"/>
      <point x="840" y="1460" type="line"/>
      <point x="30" y="1460" type="line"/>
    </contour>
    <contour>
      <point x="210" y="1500" type="line"/>
      <point x="640" y="1500" type="line"/>
      <point x="640" y="0" type="line"/>
      <point x="210" y="0" type="line"/>
    </contour>
    <contour>
      <point x="406" y="434" type="line"/>
      <point x="344" y="434" type="line"/>
      <point x="1372" y="1496" type="line"/>
      <point x="1434" y="1496" type="line"/>
    </contour>
    <contour>
      <point x="880" y="40" type="line"/>
      <point x="1700" y="40" type="line"/>
      <point x="1700" y="0" type="line"/>
      <point x="880" y="0" type="line"/>
    </contour>
    <contour>
      <point x="1610" y="1460" type="line"/>
      <point x="1130" y="1460" type="line"/>
      <point x="1130" y="1500" type="line"/>
      <point x="1610" y="1500" type="line"/>
    </contour>
    <contour>
      <point x="1544" y="0" type="line"/>
      <point x="1064" y="0" type="line"/>
      <point x="648" y="720" type="line"/>
      <point x="936" y="1026" type="line"/>
    </contour>
  </outline>
</glyph>
<glyph name="L" format="2">
  <advance width="1319"/>
  <unicode hex="004C"/>
  <outline>
    <contour>
      <point x="210" y="1500" type="line"/>
      <point x="640" y="1500" type="line"/>
      <point x="640" y="0" type="line"/>
      <point x="210" y="0" type="line"/>
    </contour>
    <contour>
      <point x="30" y="1500" type="line"/>
      <point x="820" y="1500" type="line"/>
      <point x="820" y="1460" type="line"/>
      <point x="30" y="1460" type="line"/>
    </contour>
    <contour>
      <point x="1280" y="0" type="line"/>
      <point x="30" y="0" type="line"/>
      <point x="30" y="40" type="line"/>
      <point x="740" y="40" type="line" smooth="yes"/>
      <point x="1014" y="40"/>
      <point x="1180" y="196"/>
      <point x="1240" y="450" type="curve"/>
      <point x="1280" y="450" type="line"/>
    </contour>
  </outline>
</glyph>
<glyph name="M" format="2">
  <advance width="1879"/>
  <unicode hex="004D"/>
  <outline>
    <contour>
      <point x="1850" y="1500" type="line"/>
      <point x="1850" y="1460" type="line"/>
      <point x="1710" y="1460" type="line"/>
      <point x="1710" y="0" type="line"/>
      <point x="1280" y="0" type="line"/>
      <point x="1280" y="1500" type="line"/>
    </contour>
    <contour>
      <point x="40" y="40" type="line"/>
      <point x="364" y="40" type="line"/>
      <point x="364" y="0" type="line"/>
      <point x="40" y="0" type="line"/>
    </contour>
    <contour>
      <point x="1120" y="40" type="line"/>
      <point x="1850" y="40" type="line"/>
      <point x="1850" y="0" type="line"/>
      <point x="1120" y="0" type="line"/>
    </contour>
    <contour>
      <point x="950" y="598" type="line"/>
      <point x="1256" y="1500" type="line"/>
      <point x="1300" y="1500" type="line"/>
      <point x="786" y="-20" type="line"/>
      <point x="742" y="-20" type="line"/>
      <point x="186" y="1500" type="line"/>
      <point x="618" y="1500" type="line"/>
    </contour>
    <contour>
      <point x="180" y="1460" type="line"/>
      <point x="30" y="1460" type="line"/>
      <point x="30" y="1500" type="line"/>
      <point x="224" y="1500" type="line"/>
      <point x="224" y="0" type="line"/>
      <point x="180" y="0" type="line"/>
    </contour>
  </outline>
</glyph>
<glyph name="N" format="2">
  <advance width="1569"/>
  <unicode hex="004E"/>
  <outline>
    <contour>
      <point x="1286" y="1500" type="line"/>
      <point x="1330" y="1500" type="line"/>
      <point x="1330" y="-20" type="line"/>
      <point x="1260" y="-20" type="line"/>
      <point x="230" y="1500" type="line"/>
      <point x="740" y="1500" type="line"/>
      <point x="1286" y="714" type="line"/>
    </contour>
    <contour>
      <point x="1066" y="1500" type="line"/>
      <point x="1540" y="1500" type="line"/>
      <point x="1540" y="1460" type="line"/>
      <point x="1066" y="1460" type="line"/>
    </contour>
    <contour>
      <point x="30" y="40" type="line"/>
      <point x="514" y="40" type="line"/>
      <point x="514" y="0" type="line"/>
      <point x="30" y="0" type="line"/>
    </contour>
    <contour>
      <point x="240" y="1460" type="line"/>
      <point x="30" y="1460" type="line"/>
      <point x="30" y="1500" type="line"/>
      <point x="284" y="1500" type="line"/>
      <point x="284" y="0" type="line"/>
      <point x="240" y="0" type="line"/>
    </contour>
  </outline>
</glyph>
<glyph name="R" format="2">
  <advance width="1579"/>
  <unicode hex="0052"/>
  <outline>
    <contour>
      <point x="770" y="764" type="curve" smooth="yes"/>
      <point x="390" y="764" type="line"/>
      <point x="390" y="790" type="line"/>
      <point x="670" y="790" type="line" smooth="yes"/>
      <point x="862" y="790"/>
      <point x="950" y="872"/>
      <point x="950" y="1130" type="curve" smooth="yes"/>
      <point x="950" y="1388"/>
      <point x="862" y="1460"/>
      <point x="670" y="1460" type="curve" smooth="yes"/>
      <point x="30" y="1460" type="line"/>
      <point x="30" y="1500" type="line"/>
      <point x="770" y="1500" type="line" smooth="yes"/>
      <point x="1132" y="1500"/>
      <point x="1390" y="1390"/>
      <point x="1390" y="1130" type="curve" smooth="yes"/>
      <point x="1390" y="870"/>
      <point x="1152" y="764"/>
    </contour>
    <contour>
      <point x="30" y="40" type="line"/>
      <point x="820" y="40" type="line"/>
      <point x="820" y="0" type="line"/>
      <point x="30" y="0" type="line"/>
    </contour>
    <contour>
      <point x="210" y="1500" type="line"/>
      <point x="640" y="1500" type="line"/>
      <point x="640" y="0" type="line"/>
      <point x="210" y="0" type="line"/>
    </contour>
    <contour>
      <point x="1560" y="30" type="line"/>
      <point x="1528" y="12"/>
      <point x="1412" y="-20"/>
      <point x="1260" y="-20" type="curve" smooth="yes"/>
      <point x="634" y="-20"/>
      <point x="1172" y="750"/>
      <point x="680" y="750" type="curve" smooth="yes"/>
      <point x="390" y="750" type="line"/>
      <point x="390" y="770" type="line"/>
      <point x="960" y="770" type="line" smooth="yes"/>
      <point x="1586" y="770"/>
      <point x="1204" y="48"/>
      <point x="1450" y="48" type="curve" smooth="yes"/>
      <point x="1492" y="48"/>
      <point x="1520" y="56"/>
      <point x="1548" y="68" type="curve"/>
    </contour>
  </outline>
</glyph>
<glyph name="S" format="2">
  <advance width="1269"/>
  <unicode hex="0053"/>
  <outline>
    <contour>
      <point x="1110" y="1030" type="curve"/>
      <point x="1070" y="1030" type="line"/>
      <point x="950" y="1268"/>
      <point x="802" y="1468"/>
      <point x="594" y="1468" type="curve" smooth="yes"/>
      <point x="462" y="1468"/>
      <point x="380" y="1408"/>
      <point x="380" y="1290" type="curve" smooth="yes"/>
      <point x="380" y="980"/>
      <point x="1190" y="1060"/>
      <point x="1190" y="460" type="curve" smooth="yes"/>
      <point x="1190" y="160"/>
      <point x="932" y="-30"/>
      <point x="650" y="-30" type="curve" smooth="yes"/>
      <point x="338" y="-30"/>
      <point x="188" y="270"/>
      <point x="80" y="510" type="curve"/>
      <point x="120" y="510" type="line"/>
      <point x="220" y="312"/>
      <point x="372" y="20"/>
      <point x="630" y="20" type="curve" smooth="yes"/>
      <point x="802" y="20"/>
      <point x="910" y="112"/>
      <point x="910" y="250" type="curve" smooth="yes"/>
      <point x="910" y="600"/>
      <point x="100" y="450"/>
      <point x="100" y="1090" type="curve" smooth="yes"/>
      <point x="100" y="1370"/>
      <point x="332" y="1520"/>
      <point x="574" y="1520" type="curve" smooth="yes"/>
      <point x="830" y="1520"/>
      <point x="990" y="1312"/>
    </contour>
    <contour>
      <point x="1080" y="1520" type="line"/>
      <point x="1110" y="1520" type="line"/>
      <point x="1110" y="1030" type="line"/>
      <point x="1024" y="1160"/>
      <point x="959" y="1270"/>
      <point x="850" y="1420" type="curve"/>
    </contour>
    <contour>
      <point x="110" y="-20" type="line"/>
      <point x="80" y="-20" type="line"/>
      <point x="80" y="510" type="line"/>
      <point x="171" y="369"/>
      <point x="252" y="219"/>
      <point x="354" y="88" type="curve"/>
    </contour>
  </outline>
</glyph>
<glyph name="T" format="2">
  <advance width="1449"/>
  <unicode hex="0054"/>
  <outline>
    <contour>
      <point x="290" y="40" type="line"/>
      <point x="1160" y="40" type="line"/>
      <point x="1160" y="0" type="line"/>
      <point x="290" y="0" type="line"/>
    </contour>
    <contour>
      <point x="510" y="1480" type="line"/>
      <point x="940" y="1480" type="line"/>
      <point x="940" y="0" type="line"/>
      <point x="510" y="0" type="line"/>
    </contour>
    <contour>
      <point x="1000" y="1460" type="curve" smooth="yes"/>
      <point x="450" y="1460" type="line" smooth="yes"/>
      <point x="256" y="1460"/>
      <point x="130" y="1244"/>
      <point x="70" y="990" type="curve"/>
      <point x="30" y="990" type="line"/>
      <point x="30" y="1500" type="line"/>
      <point x="1420" y="1500" type="line"/>
      <point x="1420" y="990" type="line"/>
      <point x="1380" y="990" type="line"/>
      <point x="1320" y="1244"/>
      <point x="1194" y="1460"/>
    </contour>
  </outline>
</glyph>
<glyph name="U" format="2">
  <advance width="1500"/>
  <unicode hex="0055"/>
  <outline>
    <contour>
      <point x="1080" y="1500" type="line"/>
      <point x="1470" y="1500" type="line"/>
      <point x="1470" y="1460" type="line"/>
      <point x="1080" y="1460" type="line"/>
    </contour>
    <contour>
      <point x="30" y="1500" type="line"/>
      <point x="840" y="1500" type="line"/>
      <point x="840" y="1460" type="line"/>
      <point x="30" y="1460" type="line"/>
    </contour>
    <contour>
      <point x="1250" y="1500" type="line"/>
      <point x="1290" y="1500" type="line"/>
      <point x="1290" y="460" type="line" smooth="yes"/>
      <point x="1290" y="130"/>
      <point x="1126" y="-30"/>
      <point x="790" y="-30" type="curve" smooth="yes"/>
      <point x="384" y="-30"/>
      <point x="210" y="114"/>
      <point x="210" y="460" type="curve" smooth="yes"/>
      <point x="210" y="1500" type="line"/>
      <point x="640" y="1500" type="line"/>
      <point x="640" y="480" type="line" smooth="yes"/>
      <point x="640" y="216"/>
      <point x="682" y="40"/>
      <point x="910" y="40" type="curve" smooth="yes"/>
      <point x="1078" y="40"/>
      <point x="1250" y="156"/>
      <point x="1250" y="460" type="curve" smooth="yes"/>
    </contour>
  </outline>
</glyph>
<glyph name="Y" format="2">
  <advance width="1529"/>
  <unicode hex="0059"/>
  <outline>
    <contour>
      <point x="1510" y="1460" type="line"/>
      <point x="1090" y="1460" type="line"/>
      <point x="1090" y="1500" type="line"/>
      <point x="1510" y="1500" type="line"/>
    </contour>
    <contour>
      <point x="840" y="1460" type="line"/>
      <point x="20" y="1460" type="line"/>
      <point x="20" y="1500" type="line"/>
      <point x="840" y="1500" type="line"/>
    </contour>
    <contour>
      <point x="390" y="40" type="line"/>
      <point x="1200" y="40" type="line"/>
      <point x="1200" y="0" type="line"/>
      <point x="390" y="0" type="line"/>
    </contour>
    <contour>
      <point x="988" y="844" type="line"/>
      <point x="1332" y="1496" type="line"/>
      <point x="1382" y="1496" type="line"/>
      <point x="1000" y="766" type="line"/>
      <point x="1000" y="0" type="line"/>
      <point x="570" y="0" type="line"/>
      <point x="570" y="720" type="line"/>
      <point x="140" y="1500" type="line"/>
      <point x="640" y="1500" type="line"/>
    </contour>
  </outline>
</glyph>
<glyph name="Z" format="2">
  <advance width="1349"/>
  <unicode hex="005A"/>
  <outline>
    <contour>
      <point x="60" y="1500" type="line"/>
      <point x="1260" y="1500" type="line"/>
      <point x="1260" y="1460" type="line"/>
      <point x="510" y="40" type="line"/>
      <point x="800" y="40" type="line" smooth="yes"/>
      <point x="1074" y="40"/>
      <point x="1160" y="186"/>
      <point x="1240" y="440" type="curve"/>
      <point x="1280" y="440" type="line"/>
      <point x="1280" y="0" type="line"/>
      <point x="20" y="0" type="line"/>
      <point x="20" y="40" type="line"/>
      <point x="770" y="1460" type="line"/>
      <point x="540" y="1460" type="line" smooth="yes"/>
      <point x="266" y="1460"/>
      <point x="180" y="1314"/>
      <point x="100" y="1100" type="curve"/>
      <point x="60" y="1100" type="line"/>
    </contour>
  </outline>
</glyph>
<glyph name="bracketleft" format="2">
  <advance width="769"/>
  <unicode hex="005B"/>
  <outline>
    <contour>
      <point x="710" y="-300" type="line"/>
      <point x="110" y="-300" type="line"/>
      <point x="110" y="-260" type="line"/>
      <point x="710" y="-260" type="line"/>
    </contour>
    <contour>
      <point x="710" y="1520" type="line"/>
      <point x="110" y="1520" type="line"/>
      <point x="110" y="1560" type="line"/>
      <point x="710" y="1560" type="line"/>
    </contour>
    <contour>
      <point x="530" y="1560" type="line"/>
      <point x="530" y="-300" type="line"/>
      <point x="110" y="-300" type="line"/>
      <point x="110" y="1560" type="line"/>
    </contour>
  </outline>
</glyph>
<glyph name="grave" format="2">
  <advance width="849"/>
  <unicode hex="0060"/>
  <outline>
    <contour>
      <point x="300" y="1360" type="line" smooth="yes"/>
      <point x="202" y="1342"/>
      <point x="110" y="1412"/>
      <point x="110" y="1510" type="curve" smooth="yes"/>
      <point x="110" y="1608"/>
      <point x="220" y="1698"/>
      <point x="320" y="1656" type="curve" smooth="yes"/>
      <point x="736" y="1480" type="line"/>
      <point x="731" y="1440" type="line"/>
    </contour>
  </outline>
</glyph>
<glyph name="a" format="2">
  <advance width="1276"/>
  <unicode hex="0061"/>
  <outline>
    <contour>
      <point x="1272" y="126" type="line"/>
      <point x="1226" y="26"/>
      <point x="1102" y="-20"/>
      <point x="956" y="-20" type="curve" smooth="yes"/>
      <point x="802" y="-20"/>
      <point x="672" y="28"/>
      <point x="672" y="166" type="curve" smooth="yes"/>
      <point x="672" y="610" type="line" smooth="yes"/>
      <point x="672" y="784"/>
      <point x="610" y="892"/>
      <point x="470" y="892" type="curve" smooth="yes"/>
      <point x="422" y="892"/>
      <point x="400" y="888"/>
      <point x="374" y="874" type="curve"/>
      <point x="450" y="874"/>
      <point x="562" y="840"/>
      <point x="562" y="716" type="curve" smooth="yes"/>
      <point x="562" y="616"/>
      <point x="454" y="542"/>
      <point x="344" y="542" type="curve" smooth="yes"/>
      <point x="224" y="542"/>
      <point x="140" y="620"/>
      <point x="140" y="712" type="curve" smooth="yes"/>
      <point x="140" y="846"/>
      <point x="314" y="936"/>
      <point x="536" y="936" type="curve" smooth="yes"/>
      <point x="896" y="936"/>
      <point x="1052" y="812"/>
      <point x="1052" y="610" type="curve" smooth="yes"/>
      <point x="1052" y="134" type="line" smooth="yes"/>
      <point x="1052" y="94"/>
      <point x="1078" y="64"/>
      <point x="1126" y="64" type="curve" smooth="yes"/>
      <point x="1162" y="64"/>
      <point x="1204" y="74"/>
      <point x="1242" y="142" type="curve"/>
    </contour>
    <contour>
      <point x="508" y="522" type="curve" smooth="yes"/>
      <point x="776" y="522" type="line"/>
      <point x="776" y="482" type="line"/>
      <point x="648" y="482" type="line" smooth="yes"/>
      <point x="556" y="482"/>
      <point x="474" y="390"/>
      <point x="474" y="266" type="curve" smooth="yes"/>
      <point x="474" y="192"/>
      <point x="492" y="132"/>
      <point x="542" y="132" type="curve" smooth="yes"/>
      <point x="576" y="132"/>
      <point x="672" y="160"/>
      <point x="672" y="362" type="curve"/>
      <point x="702" y="362" type="line"/>
      <point x="702" y="114"/>
      <point x="562" y="-20"/>
      <point x="340" y="-20" type="curve" smooth="yes"/>
      <point x="182" y="-20"/>
      <point x="70" y="78"/>
      <point x="70" y="226" type="curve" smooth="yes"/>
      <point x="70" y="394"/>
      <point x="224" y="522"/>
    </contour>
  </outline>
</glyph>
<glyph name="b" format="2">
  <advance width="1345"/>
  <unicode hex="0062"/>
  <outline>
    <contour>
      <point x="520" y="460" type="curve" smooth="yes"/>
      <point x="520" y="764"/>
      <point x="640" y="938"/>
      <point x="862" y="938" type="curve" smooth="yes"/>
      <point x="1080" y="938"/>
      <point x="1286" y="760"/>
      <point x="1286" y="460" type="curve" smooth="yes"/>
      <point x="1286" y="160"/>
      <point x="1080" y="-20"/>
      <point x="862" y="-20" type="curve" smooth="yes"/>
      <point x="640" y="-20"/>
      <point x="520" y="156"/>
    </contour>
    <contour>
      <point x="550" y="460" type="curve" smooth="yes"/>
      <point x="550" y="212"/>
      <point x="670" y="50"/>
      <point x="752" y="50" type="curve" smooth="yes"/>
      <point x="820" y="50"/>
      <point x="856" y="152"/>
      <point x="856" y="460" type="curve" smooth="yes"/>
      <point x="856" y="768"/>
      <point x="820" y="868"/>
      <point x="752" y="868" type="curve" smooth="yes"/>
      <point x="670" y="868"/>
      <point x="550" y="708"/>
    </contour>
    <contour>
      <point x="170" y="1460" type="line"/>
      <point x="30" y="1460" type="line"/>
      <point x="30" y="1500" type="line"/>
      <point x="550" y="1500" type="line"/>
      <point x="550" y="0" type="line"/>
      <point x="30" y="0" type="line"/>
      <point x="30" y="40" type="line"/>
      <point x="170" y="40" type="line"/>
    </contour>
  </outline>
</glyph>
<glyph name="c" format="2">
  <advance width="1099"/>
  <unicode hex="0063"/>
  <outline>
    <contour>
      <point x="824" y="848" type="curve"/>
      <point x="794" y="864"/>
      <point x="726" y="892"/>
      <point x="658" y="892" type="curve" smooth="yes"/>
      <point x="520" y="892"/>
      <point x="510" y="648"/>
      <point x="510" y="460" type="curve" smooth="yes"/>
      <point x="510" y="232"/>
      <point x="556" y="50"/>
      <point x="694" y="50" type="curve" smooth="yes"/>
      <point x="824" y="50"/>
      <point x="922" y="140"/>
      <point x="972" y="286" type="curve"/>
      <point x="1016" y="286" type="line"/>
      <point x="964" y="112"/>
      <point x="838" y="-20"/>
      <point x="596" y="-20" type="curve" smooth="yes"/>
      <point x="274" y="-20"/>
      <point x="60" y="120"/>
      <point x="60" y="460" type="curve" smooth="yes"/>
      <point x="60" y="760"/>
      <point x="246" y="940"/>
      <point x="608" y="940" type="curve" smooth="yes"/>
      <point x="832" y="940"/>
      <point x="1030" y="816"/>
      <point x="1030" y="652" type="curve" smooth="yes"/>
      <point x="1030" y="530"/>
      <point x="946" y="458"/>
      <point x="826" y="458" type="curve" smooth="yes"/>
      <point x="716" y="458"/>
      <point x="612" y="510"/>
      <point x="612" y="660" type="curve" smooth="yes"/>
      <point x="612" y="790"/>
      <point x="708" y="850"/>
      <point x="786" y="850" type="curve" smooth="yes"/>
      <point x="812" y="850"/>
      <point x="824" y="848"/>
    </contour>
  </outline>
</glyph>
<glyph name="d" format="2">
  <advance width="1345"/>
  <unicode hex="0064"/>
  <outline>
    <contour>
      <point x="826" y="460" type="curve" smooth="yes"/>
      <point x="826" y="156"/>
      <point x="706" y="-20"/>
      <point x="484" y="-20" type="curve" smooth="yes"/>
      <point x="266" y="-20"/>
      <point x="60" y="160"/>
      <point x="60" y="460" type="curve" smooth="yes"/>
      <point x="60" y="760"/>
      <point x="266" y="938"/>
      <point x="484" y="938" type="curve" smooth="yes"/>
      <point x="706" y="938"/>
      <point x="826" y="764"/>
    </contour>
    <contour>
      <point x="796" y="460" type="curve" smooth="yes"/>
      <point x="796" y="748"/>
      <point x="658" y="868"/>
      <point x="594" y="868" type="curve" smooth="yes"/>
      <point x="526" y="868"/>
      <point x="490" y="788"/>
      <point x="490" y="460" type="curve" smooth="yes"/>
      <point x="490" y="132"/>
      <point x="546" y="70"/>
      <point x="614" y="70" type="curve" smooth="yes"/>
      <point x="678" y="70"/>
      <point x="796" y="172"/>
    </contour>
    <contour>
      <point x="1316" y="40" type="line"/>
      <point x="1316" y="0" type="line"/>
      <point x="796" y="0" type="line"/>
      <point x="796" y="1460" type="line"/>
      <point x="656" y="1460" type="line"/>
      <point x="656" y="1500" type="line"/>
      <point x="1176" y="1500" type="line"/>
      <point x="1176" y="40" type="line"/>
    </contour>
  </outline>
</glyph>
<glyph name="e" format="2">
  <advance width="1095"/>
  <unicode hex="0065"/>
  <outline>
    <contour>
      <point x="194" y="502" type="line"/>
      <point x="194" y="542" type="line"/>
      <point x="652" y="542" type="line"/>
      <point x="650" y="718"/>
      <point x="648" y="900"/>
      <point x="570" y="900" type="curve" smooth="yes"/>
      <point x="492" y="900"/>
      <point x="470" y="728"/>
      <point x="470" y="500" type="curve" smooth="yes"/>
      <point x="470" y="212"/>
      <point x="502" y="40"/>
      <point x="660" y="40" type="curve" smooth="yes"/>
      <point x="816" y="40"/>
      <point x="946" y="140"/>
      <point x="996" y="286" type="curve"/>
      <point x="1036" y="286" type="line"/>
      <point x="984" y="112"/>
      <point x="838" y="-20"/>
      <point x="576" y="-20" type="curve" smooth="yes"/>
      <point x="274" y="-20"/>
      <point x="60" y="140"/>
      <point x="60" y="460" type="curve" smooth="yes"/>
      <point x="60" y="780"/>
      <point x="268" y="940"/>
      <point x="570" y="940" type="curve" smooth="yes"/>
      <point x="868" y="940"/>
      <point x="1034" y="720"/>
      <point x="1034" y="502" type="curve"/>
    </contour>
  </outline>
</glyph>
<glyph name="f" format="2">
  <advance width="859"/>
  <unicode hex="0066"/>
  <outline>
    <contour>
      <point x="20" y="40" type="line"/>
      <point x="800" y="40" type="line"/>
      <point x="800" y="0" type="line"/>
      <point x="20" y="0" type="line"/>
    </contour>
    <contour>
      <point x="20" y="920" type="line"/>
      <point x="840" y="920" type="line"/>
      <point x="840" y="880" type="line"/>
      <point x="20" y="880" type="line"/>
    </contour>
    <contour>
      <point x="954" y="1426" type="curve"/>
      <point x="924" y="1446"/>
      <point x="868" y="1480"/>
      <point x="794" y="1480" type="curve" smooth="yes"/>
      <point x="634" y="1480"/>
      <point x="560" y="1334"/>
      <point x="560" y="1080" type="curve" smooth="yes"/>
      <point x="560" y="0" type="line"/>
      <point x="200" y="0" type="line"/>
      <point x="200" y="1024" type="line" smooth="yes"/>
      <point x="200" y="1326"/>
      <point x="454" y="1520"/>
      <point x="774" y="1520" type="curve" smooth="yes"/>
      <point x="956" y="1520"/>
      <point x="1080" y="1396"/>
      <point x="1080" y="1262" type="curve" smooth="yes"/>
      <point x="1080" y="1140"/>
      <point x="1006" y="1058"/>
      <point x="886" y="1058" type="curve" smooth="yes"/>
      <point x="776" y="1058"/>
      <point x="674" y="1126"/>
      <point x="674" y="1246" type="curve" smooth="yes"/>
      <point x="674" y="1360"/>
      <point x="758" y="1444"/>
      <point x="860" y="1444" type="curve" smooth="yes"/>
      <point x="908" y="1444"/>
      <point x="954" y="1426"/>
    </contour>
  </outline>
</glyph>
<glyph name="g" format="2">
  <advance width="1353"/>
  <unicode hex="0067"/>
  <outline>
    <contour>
      <point x="94" y="148" type="curve" smooth="yes"/>
      <point x="94" y="336"/>
      <point x="394" y="354"/>
      <point x="584" y="354" type="curve"/>
      <point x="580" y="336" type="line"/>
      <point x="494" y="336"/>
      <point x="310" y="310"/>
      <point x="310" y="252" type="curve" smooth="yes"/>
      <point x="310" y="208"/>
      <point x="414" y="198"/>
      <point x="524" y="198" type="curve" smooth="yes"/>
      <point x="594" y="198"/>
      <point x="670" y="200"/>
      <point x="726" y="200" type="curve" smooth="yes"/>
      <point x="876" y="200"/>
      <point x="1080" y="108"/>
      <point x="1080" y="-164" type="curve" smooth="yes"/>
      <point x="1080" y="-406"/>
      <point x="880" y="-520"/>
      <point x="560" y="-520" type="curve" smooth="yes"/>
      <point x="314" y="-520"/>
      <point x="30" y="-460"/>
      <point x="30" y="-270" type="curve" smooth="yes"/>
      <point x="30" y="-88"/>
      <point x="270" y="-64"/>
      <point x="360" y="-64" type="curve" smooth="yes"/>
      <point x="380" y="-64" type="line"/>
      <point x="330" y="-90"/>
      <point x="320" y="-180"/>
      <point x="320" y="-204" type="curve" smooth="yes"/>
      <point x="320" y="-380"/>
      <point x="440" y="-470"/>
      <point x="592" y="-470" type="curve" smooth="yes"/>
      <point x="730" y="-470"/>
      <point x="924" y="-458"/>
      <point x="924" y="-294" type="curve" smooth="yes"/>
      <point x="924" y="-186"/>
      <point x="850" y="-118"/>
      <point x="720" y="-118" type="curve" smooth="yes"/>
      <point x="658" y="-118"/>
      <point x="536" y="-118"/>
      <point x="492" y="-118" type="curve" smooth="yes"/>
      <point x="312" y="-118"/>
      <point x="94" y="-36"/>
    </contour>
    <contour>
      <point x="470" y="630" type="curve" smooth="yes"/>
      <point x="470" y="442"/>
      <point x="480" y="360"/>
      <point x="538" y="360" type="curve" smooth="yes"/>
      <point x="576" y="360"/>
      <point x="606" y="442"/>
      <point x="606" y="630" type="curve" smooth="yes"/>
      <point x="606" y="818"/>
      <point x="576" y="900"/>
      <point x="538" y="900" type="curve" smooth="yes"/>
      <point x="500" y="900"/>
      <point x="470" y="818"/>
    </contour>
    <contour>
      <point x="80" y="630" type="curve" smooth="yes"/>
      <point x="80" y="850"/>
      <point x="316" y="940"/>
      <point x="538" y="940" type="curve" smooth="yes"/>
      <point x="760" y="940"/>
      <point x="996" y="850"/>
      <point x="996" y="630" type="curve" smooth="yes"/>
      <point x="996" y="410"/>
      <point x="760" y="320"/>
      <point x="538" y="320" type="curve" smooth="yes"/>
      <point x="316" y="320"/>
      <point x="80" y="410"/>
    </contour>
    <contour>
      <point x="1224" y="850" type="curve"/>
      <point x="1204" y="882"/>
      <point x="1150" y="890"/>
      <point x="1106" y="890" type="curve" smooth="yes"/>
      <point x="1006" y="890"/>
      <point x="900" y="844"/>
      <point x="860" y="670" type="curve"/>
      <point x="826" y="694" type="line"/>
      <point x="866" y="876"/>
      <point x="986" y="930"/>
      <point x="1106" y="930" type="curve" smooth="yes"/>
      <point x="1268" y="930"/>
      <point x="1334" y="814"/>
      <point x="1334" y="738" type="curve" smooth="yes"/>
      <point x="1334" y="608"/>
      <point x="1252" y="568"/>
      <point x="1182" y="568" type="curve" smooth="yes"/>
      <point x="1112" y="568"/>
      <point x="1032" y="612"/>
      <point x="1032" y="718" type="curve" smooth="yes"/>
      <point x="1032" y="794"/>
      <point x="1082" y="862"/>
      <point x="1168" y="862" type="curve" smooth="yes"/>
      <point x="1200" y="862"/>
      <point x="1216" y="854"/>
    </contour>
  </outline>
</glyph>
<glyph name="h" format="2">
  <advance width="1329"/>
  <unicode hex="0068"/>
  <outline>
    <contour>
      <point x="780" y="616" type="line" smooth="yes"/>
      <point x="780" y="784"/>
      <point x="764" y="808"/>
      <point x="708" y="808" type="curve" smooth="yes"/>
      <point x="646" y="808"/>
      <point x="550" y="652"/>
      <point x="550" y="446" type="curve"/>
      <point x="520" y="446" type="line"/>
      <point x="520" y="650"/>
      <point x="590" y="940"/>
      <point x="876" y="940" type="curve" smooth="yes"/>
      <point x="1090" y="940"/>
      <point x="1160" y="812"/>
      <point x="1160" y="638" type="curve" smooth="yes"/>
      <point x="1160" y="0" type="line"/>
      <point x="780" y="0" type="line"/>
    </contour>
    <contour>
      <point x="700" y="40" type="line"/>
      <point x="1300" y="40" type="line"/>
      <point x="1300" y="0" type="line"/>
      <point x="700" y="0" type="line"/>
    </contour>
    <contour>
      <point x="30" y="40" type="line"/>
      <point x="630" y="40" type="line"/>
      <point x="630" y="0" type="line"/>
      <point x="30" y="0" type="line"/>
    </contour>
    <contour>
      <point x="170" y="1460" type="line"/>
      <point x="30" y="1460" type="line"/>
      <point x="30" y="1500" type="line"/>
      <point x="550" y="1500" type="line"/>
      <point x="550" y="0" type="line"/>
      <point x="170" y="0" type="line"/>
    </contour>
  </outline>
</glyph>
<glyph name="j" format="2">
  <advance width="733"/>
  <unicode hex="006A"/>
  <outline>
    <contour>
      <point x="164" y="1300" type="curve" smooth="yes"/>
      <point x="164" y="1426"/>
      <point x="258" y="1520"/>
      <point x="384" y="1520" type="curve" smooth="yes"/>
      <point x="510" y="1520"/>
      <point x="604" y="1426"/>
      <point x="604" y="1300" type="curve" smooth="yes"/>
      <point x="604" y="1174"/>
      <point x="510" y="1080"/>
      <point x="384" y="1080" type="curve" smooth="yes"/>
      <point x="258" y="1080"/>
      <point x="164" y="1174"/>
    </contour>
    <contour>
      <point x="590" y="920" type="line"/>
      <point x="590" y="-24" type="line" smooth="yes"/>
      <point x="590" y="-286"/>
      <point x="336" y="-520"/>
      <point x="36" y="-520" type="curve" smooth="yes"/>
      <point x="-166" y="-520"/>
      <point x="-330" y="-422"/>
      <point x="-330" y="-272" type="curve" smooth="yes"/>
      <point x="-330" y="-152"/>
      <point x="-230" y="-58"/>
      <point x="-116" y="-58" type="curve" smooth="yes"/>
      <point x="-6" y="-58"/>
      <point x="96" y="-126"/>
      <point x="96" y="-246" type="curve" smooth="yes"/>
      <point x="96" y="-356"/>
      <point x="8" y="-438"/>
      <point x="-130" y="-438" type="curve" smooth="yes"/>
      <point x="-136" y="-438"/>
      <point x="-144" y="-438"/>
      <point x="-144" y="-438" type="curve"/>
      <point x="-122" y="-448"/>
      <point x="-82" y="-472"/>
      <point x="6" y="-472" type="curve" smooth="yes"/>
      <point x="246" y="-472"/>
      <point x="210" y="-214"/>
      <point x="210" y="40" type="curve" smooth="yes"/>
      <point x="210" y="880" type="line"/>
      <point x="30" y="880" type="line"/>
      <point x="30" y="920" type="line"/>
    </contour>
  </outline>
</glyph>
<glyph name="k" format="2">
  <advance width="1391"/>
  <unicode hex="006B"/>
  <outline>
    <contour>
      <point x="1306" y="0" type="line"/>
      <point x="840" y="0" type="line"/>
      <point x="494" y="542" type="line"/>
      <point x="1078" y="920" type="line"/>
      <point x="1144" y="920" type="line"/>
      <point x="824" y="704" type="line"/>
    </contour>
    <contour>
      <point x="728" y="40" type="line"/>
      <point x="1382" y="40" type="line"/>
      <point x="1382" y="0" type="line"/>
      <point x="728" y="0" type="line"/>
    </contour>
    <contour>
      <point x="1254" y="880" type="line"/>
      <point x="808" y="880" type="line"/>
      <point x="808" y="920" type="line"/>
      <point x="1254" y="920" type="line"/>
    </contour>
    <contour>
      <point x="30" y="40" type="line"/>
      <point x="670" y="40" type="line"/>
      <point x="670" y="0" type="line"/>
      <point x="30" y="0" type="line"/>
    </contour>
    <contour>
      <point x="210" y="1460" type="line"/>
      <point x="30" y="1460" type="line"/>
      <point x="30" y="1500" type="line"/>
      <point x="590" y="1500" type="line"/>
      <point x="590" y="0" type="line"/>
      <point x="210" y="0" type="line"/>
    </contour>
  </outline>
</glyph>
<glyph name="l" format="2">
  <advance width="799"/>
  <unicode hex="006C"/>
  <outline>
    <contour>
      <point x="30" y="40" type="line"/>
      <point x="770" y="40" type="line"/>
      <point x="770" y="0" type="line"/>
      <point x="30" y="0" type="line"/>
    </contour>
    <contour>
      <point x="210" y="1460" type="line"/>
      <point x="30" y="1460" type="line"/>
      <point x="30" y="1500" type="line"/>
      <point x="590" y="1500" type="line"/>
      <point x="590" y="0" type="line"/>
      <point x="210" y="0" type="line"/>
    </contour>
  </outline>
</glyph>
<glyph name="m" format="2">
  <advance width="1859"/>
  <unicode hex="006D"/>
  <outline>
    <contour>
      <point x="1120" y="638" type="curve" smooth="yes"/>
      <point x="1120" y="0" type="line"/>
      <point x="740" y="0" type="line"/>
      <point x="740" y="616" type="line" smooth="yes"/>
      <point x="740" y="784"/>
      <point x="738" y="830"/>
      <point x="698" y="830" type="curve" smooth="yes"/>
      <point x="632" y="830"/>
      <point x="550" y="652"/>
      <point x="550" y="446" type="curve"/>
      <point x="520" y="446" type="line"/>
      <point x="520" y="650"/>
      <point x="570" y="940"/>
      <point x="856" y="940" type="curve" smooth="yes"/>
      <point x="1050" y="940"/>
      <point x="1120" y="812"/>
    </contour>
    <contour>
      <point x="30" y="40" type="line"/>
      <point x="620" y="40" type="line"/>
      <point x="620" y="0" type="line"/>
      <point x="30" y="0" type="line"/>
    </contour>
    <contour>
      <point x="670" y="40" type="line"/>
      <point x="1190" y="40" type="line"/>
      <point x="1190" y="0" type="line"/>
      <point x="670" y="0" type="line"/>
    </contour>
    <contour>
      <point x="1240" y="40" type="line"/>
      <point x="1830" y="40" type="line"/>
      <point x="1830" y="0" type="line"/>
      <point x="1240" y="0" type="line"/>
    </contour>
    <contour>
      <point x="170" y="880" type="line"/>
      <point x="30" y="880" type="line"/>
      <point x="30" y="920" type="line"/>
      <point x="550" y="920" type="line"/>
      <point x="550" y="0" type="line"/>
      <point x="170" y="0" type="line"/>
    </contour>
    <contour>
      <point x="1690" y="638" type="curve" smooth="yes"/>
      <point x="1690" y="0" type="line"/>
      <point x="1310" y="0" type="line"/>
      <point x="1310" y="616" type="line" smooth="yes"/>
      <point x="1310" y="784"/>
      <point x="1310" y="830"/>
      <point x="1268" y="830" type="curve" smooth="yes"/>
      <point x="1202" y="830"/>
      <point x="1120" y="652"/>
      <point x="1120" y="446" type="curve"/>
      <point x="1094" y="446" type="line"/>
      <point x="1094" y="650"/>
      <point x="1128" y="940"/>
      <point x="1426" y="940" type="curve" smooth="yes"/>
      <point x="1620" y="940"/>
      <point x="1690" y="812"/>
    </contour>
  </outline>
</glyph>
<glyph name="p" format="2">
  <advance width="1345"/>
  <unicode hex="0070"/>
  <outline>
    <contour>
      <point x="520" y="460" type="curve" smooth="yes"/>
      <point x="520" y="764"/>
      <point x="640" y="938"/>
      <point x="862" y="938" type="curve" smooth="yes"/>
      <point x="1080" y="938"/>
      <point x="1286" y="760"/>
      <point x="1286" y="460" type="curve" smooth="yes"/>
      <point x="1286" y="160"/>
      <point x="1080" y="-20"/>
      <point x="862" y="-20" type="curve" smooth="yes"/>
      <point x="640" y="-20"/>
      <point x="520" y="156"/>
    </contour>
    <contour>
      <point x="550" y="460" type="curve" smooth="yes"/>
      <point x="550" y="172"/>
      <point x="696" y="50"/>
      <point x="742" y="50" type="curve" smooth="yes"/>
      <point x="830" y="50"/>
      <point x="856" y="192"/>
      <point x="856" y="460" type="curve" smooth="yes"/>
      <point x="856" y="728"/>
      <point x="840" y="868"/>
      <point x="752" y="868" type="curve" smooth="yes"/>
      <point x="690" y="868"/>
      <point x="550" y="748"/>
    </contour>
    <contour>
      <point x="30" y="-460" type="line"/>
      <point x="690" y="-460" type="line"/>
      <point x="690" y="-500" type="line"/>
      <point x="30" y="-500" type="line"/>
    </contour>
    <contour>
      <point x="170" y="880" type="line"/>
      <point x="30" y="880" type="line"/>
      <point x="30" y="920" type="line"/>
      <point x="550" y="920" type="line"/>
      <point x="550" y="-500" type="line"/>
      <point x="170" y="-500" type="line"/>
    </contour>
  </outline>
</glyph>
<glyph name="q" format="2">
  <advance width="1345"/>
  <unicode hex="0071"/>
  <outline>
    <contour>
      <point x="826" y="460" type="curve" smooth="yes"/>
      <point x="826" y="156"/>
      <point x="706" y="-20"/>
      <point x="484" y="-20" type="curve" smooth="yes"/>
      <point x="266" y="-20"/>
      <point x="60" y="160"/>
      <point x="60" y="460" type="curve" smooth="yes"/>
      <point x="60" y="760"/>
      <point x="266" y="938"/>
      <point x="484" y="938" type="curve" smooth="yes"/>
      <point x="706" y="938"/>
      <point x="826" y="764"/>
    </contour>
    <contour>
      <point x="796" y="460" type="curve" smooth="yes"/>
      <point x="796" y="748"/>
      <point x="656" y="868"/>
      <point x="594" y="868" type="curve" smooth="yes"/>
      <point x="526" y="868"/>
      <point x="490" y="728"/>
      <point x="490" y="460" type="curve" smooth="yes"/>
      <point x="490" y="192"/>
      <point x="526" y="70"/>
      <point x="594" y="70" type="curve" smooth="yes"/>
      <point x="696" y="70"/>
      <point x="796" y="172"/>
    </contour>
    <contour>
      <point x="1316" y="-460" type="line"/>
      <point x="1316" y="-500" type="line"/>
      <point x="656" y="-500" type="line"/>
      <point x="656" y="-460" type="line"/>
    </contour>
    <contour>
      <point x="1316" y="920" type="line"/>
      <point x="1316" y="880" type="line"/>
      <point x="1176" y="880" type="line"/>
      <point x="1176" y="-500" type="line"/>
      <point x="796" y="-500" type="line"/>
      <point x="796" y="920" type="line"/>
    </contour>
  </outline>
</glyph>
<glyph name="r" format="2">
  <advance width="1093"/>
  <unicode hex="0072"/>
  <outline>
    <contour>
      <point x="896" y="878" type="curve"/>
      <point x="870" y="890"/>
      <point x="830" y="894"/>
      <point x="800" y="894" type="curve" smooth="yes"/>
      <point x="610" y="894"/>
      <point x="550" y="642"/>
      <point x="550" y="446" type="curve"/>
      <point x="520" y="446" type="line"/>
      <point x="520" y="690"/>
      <point x="558" y="940"/>
      <point x="820" y="940" type="curve" smooth="yes"/>
      <point x="952" y="940"/>
      <point x="1084" y="836"/>
      <point x="1084" y="678" type="curve" smooth="yes"/>
      <point x="1084" y="560"/>
      <point x="1004" y="456"/>
      <point x="868" y="456" type="curve" smooth="yes"/>
      <point x="742" y="456"/>
      <point x="650" y="542"/>
      <point x="650" y="666" type="curve" smooth="yes"/>
      <point x="650" y="784"/>
      <point x="744" y="878"/>
    </contour>
    <contour>
      <point x="30" y="40" type="line"/>
      <point x="690" y="40" type="line"/>
      <point x="690" y="0" type="line"/>
      <point x="30" y="0" type="line"/>
    </contour>
    <contour>
      <point x="170" y="880" type="line"/>
      <point x="30" y="880" type="line"/>
      <point x="30" y="920" type="line"/>
      <point x="550" y="920" type="line"/>
      <point x="550" y="0" type="line"/>
      <point x="170" y="0" type="line"/>
    </contour>
  </outline>
</glyph>
<glyph name="s" format="2">
  <advance width="939"/>
  <unicode hex="0073"/>
  <outline>
    <contour>
      <point x="778" y="700" type="curve"/>
      <point x="738" y="754"/>
      <point x="693" y="801"/>
      <point x="650" y="852" type="curve"/>
      <point x="794" y="940" type="line"/>
      <point x="824" y="940" type="line"/>
      <point x="824" y="660" type="line"/>
      <point x="784" y="660" type="line"/>
      <point x="784" y="673"/>
      <point x="782" y="687"/>
    </contour>
    <contour>
      <point x="814" y="660" type="curve"/>
      <point x="784" y="660" type="line"/>
      <point x="704" y="766"/>
      <point x="598" y="894"/>
      <point x="436" y="894" type="curve" smooth="yes"/>
      <point x="380" y="894"/>
      <point x="270" y="876"/>
      <point x="270" y="782" type="curve" smooth="yes"/>
      <point x="270" y="642"/>
      <point x="890" y="700"/>
      <point x="890" y="304" type="curve" smooth="yes"/>
      <point x="890" y="66"/>
      <point x="682" y="-20"/>
      <point x="508" y="-20" type="curve" smooth="yes"/>
      <point x="300" y="-20"/>
      <point x="170" y="104"/>
      <point x="80" y="320" type="curve"/>
      <point x="110" y="320" type="line"/>
      <point x="210" y="134"/>
      <point x="346" y="24"/>
      <point x="488" y="24" type="curve" smooth="yes"/>
      <point x="588" y="24"/>
      <point x="704" y="48"/>
      <point x="704" y="130" type="curve" smooth="yes"/>
      <point x="704" y="264"/>
      <point x="94" y="218"/>
      <point x="94" y="630" type="curve" smooth="yes"/>
      <point x="94" y="818"/>
      <point x="244" y="938"/>
      <point x="434" y="938" type="curve" smooth="yes"/>
      <point x="630" y="938"/>
      <point x="734" y="792"/>
    </contour>
    <contour>
      <point x="100" y="-20" type="line"/>
      <point x="70" y="-20" type="line"/>
      <point x="70" y="320" type="line"/>
      <point x="110" y="320" type="line"/>
      <point x="108" y="300"/>
      <point x="108" y="279"/>
      <point x="110" y="254" type="curve"/>
      <point x="154" y="186"/>
      <point x="199" y="138"/>
      <point x="244" y="88" type="curve"/>
    </contour>
  </outline>
</glyph>
<glyph name="t" format="2">
  <advance width="809"/>
  <unicode hex="0074"/>
  <outline>
    <contour>
      <point x="10" y="920" type="line"/>
      <point x="750" y="920" type="line"/>
      <point x="750" y="880" type="line"/>
      <point x="10" y="880" type="line"/>
    </contour>
    <contour>
      <point x="810" y="204" type="line"/>
      <point x="762" y="76"/>
      <point x="640" y="-14"/>
      <point x="438" y="-14" type="curve" smooth="yes"/>
      <point x="214" y="-14"/>
      <point x="156" y="72"/>
      <point x="156" y="242" type="curve" smooth="yes"/>
      <point x="156" y="1120" type="line"/>
      <point x="276" y="1120"/>
      <point x="436" y="1130"/>
      <point x="536" y="1180" type="curve"/>
      <point x="536" y="226" type="line" smooth="yes"/>
      <point x="536" y="126"/>
      <point x="558" y="80"/>
      <point x="612" y="80" type="curve" smooth="yes"/>
      <point x="668" y="80"/>
      <point x="738" y="130"/>
      <point x="774" y="218" type="curve"/>
    </contour>
  </outline>
</glyph>
<glyph name="u" format="2">
  <advance width="1329"/>
  <unicode hex="0075"/>
  <outline>
    <contour>
      <point x="550" y="920" type="line"/>
      <point x="550" y="304" type="line" smooth="yes"/>
      <point x="550" y="136"/>
      <point x="566" y="112"/>
      <point x="622" y="112" type="curve" smooth="yes"/>
      <point x="684" y="112"/>
      <point x="780" y="268"/>
      <point x="780" y="474" type="curve"/>
      <point x="810" y="474" type="line"/>
      <point x="810" y="270"/>
      <point x="740" y="-20"/>
      <point x="454" y="-20" type="curve" smooth="yes"/>
      <point x="240" y="-20"/>
      <point x="170" y="108"/>
      <point x="170" y="282" type="curve" smooth="yes"/>
      <point x="170" y="880" type="line"/>
      <point x="30" y="880" type="line"/>
      <point x="30" y="920" type="line"/>
    </contour>
    <contour>
      <point x="1160" y="40" type="line"/>
      <point x="1300" y="40" type="line"/>
      <point x="1300" y="0" type="line"/>
      <point x="780" y="0" type="line"/>
      <point x="780" y="880" type="line"/>
      <point x="660" y="880" type="line"/>
      <point x="660" y="920" type="line"/>
      <point x="1160" y="920" type="line"/>
    </contour>
  </outline>
</glyph>
<glyph name="v" format="2">
  <advance width="1197"/>
  <unicode hex="0076"/>
  <outline>
    <contour>
      <point x="1208" y="880" type="line"/>
      <point x="820" y="880" type="line"/>
      <point x="820" y="920" type="line"/>
      <point x="1208" y="920" type="line"/>
    </contour>
    <contour>
      <point x="672" y="880" type="line"/>
      <point x="-10" y="880" type="line"/>
      <point x="-10" y="920" type="line"/>
      <point x="672" y="920" type="line"/>
    </contour>
    <contour>
      <point x="760" y="274" type="line"/>
      <point x="1016" y="920" type="line"/>
      <point x="1070" y="920" type="line"/>
      <point x="694" y="-20" type="line"/>
      <point x="506" y="-20" type="line"/>
      <point x="120" y="920" type="line"/>
      <point x="540" y="920" type="line"/>
    </contour>
  </outline>
</glyph>
<glyph name="x" format="2">
  <advance width="1187"/>
  <unicode hex="0078"/>
  <outline>
    <contour>
      <point x="496" y="40" type="line"/>
      <point x="1178" y="40" type="line"/>
      <point x="1178" y="0" type="line"/>
      <point x="496" y="0" type="line"/>
    </contour>
    <contour>
      <point x="10" y="40" type="line"/>
      <point x="388" y="40" type="line"/>
      <point x="388" y="0" type="line"/>
      <point x="10" y="0" type="line"/>
    </contour>
    <contour>
      <point x="682" y="880" type="line"/>
      <point x="10" y="880" type="line"/>
      <point x="10" y="920" type="line"/>
      <point x="682" y="920" type="line"/>
    </contour>
    <contour>
      <point x="1158" y="880" type="line"/>
      <point x="810" y="880" type="line"/>
      <point x="810" y="920" type="line"/>
      <point x="1158" y="920" type="line"/>
    </contour>
    <contour>
      <point x="1088" y="0" type="line"/>
      <point x="648" y="0" type="line"/>
      <point x="120" y="920" type="line"/>
      <point x="540" y="920" type="line"/>
    </contour>
    <contour>
      <point x="166" y="0" type="line"/>
      <point x="110" y="0" type="line"/>
      <point x="982" y="920" type="line"/>
      <point x="1038" y="920" type="line"/>
    </contour>
  </outline>
</glyph>
<glyph name="y" format="2">
  <advance width="1275"/>
  <unicode hex="0079"/>
  <outline>
    <contour>
      <point x="812" y="880" type="line"/>
      <point x="-30" y="880" type="line"/>
      <point x="-30" y="920" type="line"/>
      <point x="812" y="920" type="line"/>
    </contour>
    <contour>
      <point x="1306" y="880" type="line"/>
      <point x="916" y="880" type="line"/>
      <point x="916" y="920" type="line"/>
      <point x="1306" y="920" type="line"/>
    </contour>
    <contour>
      <point x="884" y="356" type="line"/>
      <point x="650" y="-54" type="line"/>
      <point x="118" y="920" type="line"/>
      <point x="578" y="920" type="line"/>
    </contour>
    <contour>
      <point x="518" y="-272" type="curve"/>
      <point x="1144" y="920" type="line"/>
      <point x="1198" y="920" type="line"/>
      <point x="530" y="-356" type="line" smooth="yes"/>
      <point x="480" y="-450"/>
      <point x="408" y="-502"/>
      <point x="312" y="-502" type="curve" smooth="yes"/>
      <point x="202" y="-502"/>
      <point x="104" y="-428"/>
      <point x="104" y="-312" type="curve" smooth="yes"/>
      <point x="104" y="-206"/>
      <point x="190" y="-108"/>
      <point x="314" y="-108" type="curve" smooth="yes"/>
      <point x="426" y="-108"/>
      <point x="498" y="-198"/>
    </contour>
  </outline>
</glyph>
<glyph name="z" format="2">
  <advance width="1019"/>
  <unicode hex="007A"/>
  <outline>
    <contour>
      <point x="432" y="880" type="line" smooth="yes"/>
      <point x="284" y="880"/>
      <point x="176" y="778"/>
      <point x="116" y="576" type="curve"/>
      <point x="76" y="576" type="line"/>
      <point x="76" y="920" type="line"/>
      <point x="958" y="920" type="line"/>
      <point x="958" y="880" type="line"/>
      <point x="436" y="40" type="line"/>
      <point x="588" y="40" type="line" smooth="yes"/>
      <point x="782" y="40"/>
      <point x="890" y="120"/>
      <point x="950" y="368" type="curve"/>
      <point x="990" y="368" type="line"/>
      <point x="990" y="0" type="line"/>
      <point x="20" y="0" type="line"/>
      <point x="20" y="40" type="line"/>
      <point x="540" y="880" type="line"/>
    </contour>
  </outline>
</glyph>
<glyph name="braceleft" format="2">
  <advance width="1604"/>
  <unicode hex="007B"/>
  <outline>
    <contour>
      <point x="1482.51" y="3194.51" type="curve"/>
      <point x="1482.51" y="3113.81" type="line"/>
      <point x="1228.51" y="3113.81"/>
      <point x="1098" y="2908"/>
      <point x="1098" y="2650" type="curve" smooth="yes"/>
      <point x="1098" y="2420.51"/>
      <point x="1236.51" y="2216"/>
      <point x="1236.51" y="1888" type="curve" smooth="yes"/>
      <point x="1236.51" y="1548"/>
      <point x="1020" y="1361.76"/>
      <point x="225.488" y="1279.76" type="curve"/>
      <point x="225.488" y="1332.3" type="line"/>
      <point x="348" y="1372.82"/>
      <point x="471.488" y="1454"/>
      <point x="471.488" y="1622" type="curve" smooth="yes"/>
      <point x="471.488" y="1880"/>
      <point x="225.488" y="2064.51"/>
      <point x="225.488" y="2544" type="curve" smooth="yes"/>
      <point x="225.488" y="2990"/>
      <point x="520" y="3194.51"/>
    </contour>
    <contour>
      <point x="1482.51" y="-614" type="line"/>
      <point x="520" y="-614"/>
      <point x="225.488" y="-405.488"/>
      <point x="225.488" y="40.512" type="curve" smooth="yes"/>
      <point x="225.488" y="520"/>
      <point x="471.488" y="704.512"/>
      <point x="471.488" y="962.512" type="curve" smooth="yes"/>
      <point x="471.488" y="1130.51"/>
      <point x="348" y="1209.14"/>
      <point x="225.488" y="1249.65" type="curve"/>
      <point x="225.488" y="1302.7" type="line"/>
      <point x="1020" y="1220.7"/>
      <point x="1236.51" y="1036"/>
      <point x="1236.51" y="696" type="curve" smooth="yes"/>
      <point x="1236.51" y="368"/>
      <point x="1098" y="163.488"/>
      <point x="1098" y="-66" type="curve" smooth="yes"/>
      <point x="1098" y="-324"/>
      <point x="1228.51" y="-533.296"/>
      <point x="1482.51" y="-533.296" type="curve"/>
    </contour>
  </outline>
</glyph>
<glyph name="cent" format="2">
  <advance width="1099"/>
  <unicode hex="00A2"/>
  <outline>
    <contour>
      <point x="631" y="1110" type="line"/>
      <point x="631" y="-170" type="line"/>
      <point x="591" y="-170" type="line"/>
      <point x="591" y="1110" type="line"/>
    </contour>
    <component base="c"/>
  </outline>
</glyph>
<glyph name="sterling" format="2">
  <advance width="1373"/>
  <unicode hex="00A3"/>
  <outline>
    <contour>
      <point x="1324" y="554" type="line"/>
      <point x="1324" y="64"/>
      <point x="1202" y="-60"/>
      <point x="924" y="-60" type="curve" smooth="yes"/>
      <point x="650" y="-60"/>
      <point x="500" y="60"/>
      <point x="374" y="60" type="curve" smooth="yes"/>
      <point x="292" y="60"/>
      <point x="204" y="20"/>
      <point x="184" y="-40" type="curve"/>
      <point x="162" y="-40" type="line"/>
      <point x="182" y="108"/>
      <point x="418" y="434"/>
      <point x="644" y="434" type="curve" smooth="yes"/>
      <point x="804" y="434"/>
      <point x="884" y="366"/>
      <point x="996" y="366" type="curve" smooth="yes"/>
      <point x="1122" y="366"/>
      <point x="1284" y="390"/>
      <point x="1284" y="554" type="curve"/>
    </contour>
    <contour>
      <point x="930" y="810" type="line"/>
      <point x="930" y="770" type="line"/>
      <point x="30" y="770" type="line"/>
      <point x="30" y="810" type="line"/>
    </contour>
    <contour>
      <point x="156" y="1100" type="curve" smooth="yes"/>
      <point x="156" y="1380"/>
      <point x="386" y="1520"/>
      <point x="768" y="1520" type="curve" smooth="yes"/>
      <point x="1092" y="1520"/>
      <point x="1304" y="1306"/>
      <point x="1304" y="1142" type="curve" smooth="yes"/>
      <point x="1304" y="1000"/>
      <point x="1214" y="888"/>
      <point x="1084" y="888" type="curve" smooth="yes"/>
      <point x="954" y="888"/>
      <point x="832" y="980"/>
      <point x="832" y="1120" type="curve" smooth="yes"/>
      <point x="832" y="1250"/>
      <point x="948" y="1350"/>
      <point x="1066" y="1350" type="curve" smooth="yes"/>
      <point x="1112" y="1350"/>
      <point x="1132" y="1336"/>
      <point x="1140" y="1334" type="curve"/>
      <point x="1080" y="1388"/>
      <point x="956" y="1458"/>
      <point x="848" y="1458" type="curve" smooth="yes"/>
      <point x="710" y="1458"/>
      <point x="618" y="1408"/>
      <point x="618" y="1220" type="curve" smooth="yes"/>
      <point x="618" y="1022"/>
      <point x="730" y="970"/>
      <point x="730" y="780" type="curve" smooth="yes"/>
      <point x="730" y="400"/>
      <point x="158" y="410"/>
      <point x="184" y="-40" type="curve"/>
      <point x="144" y="-40" type="line"/>
      <point x="106" y="238"/>
      <point x="318" y="394"/>
      <point x="318" y="522" type="curve" smooth="yes"/>
      <point x="318" y="750"/>
      <point x="156" y="870"/>
    </contour>
  </outline>
</glyph>
<glyph name="section" format="2">
  <advance width="1011"/>
  <unicode hex="00A7"/>
  <outline>
    <contour>
      <point x="330" y="1318" type="curve" smooth="yes"/>
      <point x="330" y="1106"/>
      <point x="916" y="1086"/>
      <point x="916" y="780" type="curve" smooth="yes"/>
      <point x="916" y="616"/>
      <point x="798" y="582"/>
      <point x="710" y="530" type="curve"/>
      <point x="672" y="530" type="line"/>
      <point x="680" y="554"/>
      <point x="724" y="576"/>
      <point x="724" y="656" type="curve" smooth="yes"/>
      <point x="724" y="838"/>
      <point x="144" y="812"/>
      <point x="144" y="1176" type="curve" smooth="yes"/>
      <point x="144" y="1384"/>
      <point x="314" y="1520"/>
      <point x="544" y="1520" type="curve" smooth="yes"/>
      <point x="700" y="1520"/>
      <point x="932" y="1470"/>
      <point x="932" y="1258" type="curve" smooth="yes"/>
      <point x="932" y="1156"/>
      <point x="862" y="1074"/>
      <point x="752" y="1074" type="curve" smooth="yes"/>
      <point x="652" y="1074"/>
      <point x="584" y="1154"/>
      <point x="584" y="1246" type="curve" smooth="yes"/>
      <point x="584" y="1330"/>
      <point x="660" y="1410"/>
      <point x="758" y="1410" type="curve" smooth="yes"/>
      <point x="796" y="1410"/>
      <point x="822" y="1394"/>
      <point x="830" y="1392" type="curve"/>
      <point x="744" y="1454"/>
      <point x="648" y="1476"/>
      <point x="544" y="1476" type="curve" smooth="yes"/>
      <point x="440" y="1476"/>
      <point x="330" y="1416"/>
    </contour>
    <contour>
      <point x="928" y="324" type="curve" smooth="yes"/>
      <point x="928" y="116"/>
      <point x="758" y="-20"/>
      <point x="488" y="-20" type="curve" smooth="yes"/>
      <point x="312" y="-20"/>
      <point x="60" y="50"/>
      <point x="60" y="242" type="curve" smooth="yes"/>
      <point x="60" y="344"/>
      <point x="130" y="426"/>
      <point x="240" y="426" type="curve" smooth="yes"/>
      <point x="340" y="426"/>
      <point x="408" y="346"/>
      <point x="408" y="254" type="curve" smooth="yes"/>
      <point x="408" y="170"/>
      <point x="338" y="98"/>
      <point x="240" y="98" type="curve" smooth="yes"/>
      <point x="202" y="98"/>
      <point x="176" y="114"/>
      <point x="168" y="116" type="curve"/>
      <point x="254" y="54"/>
      <point x="364" y="24"/>
      <point x="488" y="24" type="curve" smooth="yes"/>
      <point x="654" y="24"/>
      <point x="742" y="104"/>
      <point x="742" y="182" type="curve" smooth="yes"/>
      <point x="742" y="394"/>
      <point x="116" y="384"/>
      <point x="116" y="690" type="curve" smooth="yes"/>
      <point x="116" y="854"/>
      <point x="234" y="928"/>
      <point x="322" y="980" type="curve"/>
      <point x="360" y="980" type="line"/>
      <point x="352" y="956"/>
      <point x="308" y="934"/>
      <point x="308" y="854" type="curve" smooth="yes"/>
      <point x="308" y="672"/>
      <point x="928" y="688"/>
    </contour>
  </outline>
</glyph>
<glyph name="copyright" format="2">
  <advance width="3562"/>
  <unicode hex="00A9"/>
  <outline>
    <contour>
      <point x="204.512" y="1536" type="curve" smooth="yes"/>
      <point x="204.512" y="2408"/>
      <point x="910" y="3112.51"/>
      <point x="1782" y="3112.51" type="curve" smooth="yes"/>
      <point x="2654" y="3112.51"/>
      <point x="3358.51" y="2408"/>
      <point x="3358.51" y="1536" type="curve" smooth="yes"/>
      <point x="3358.51" y="664"/>
      <point x="2654" y="-40.512"/>
      <point x="1782" y="-40.512" type="curve" smooth="yes"/>
      <point x="910" y="-40.512"/>
      <point x="204.512" y="664"/>
    </contour>
    <contour>
      <point x="285.216" y="1536" type="curve" smooth="yes"/>
      <point x="285.216" y="710.4"/>
      <point x="956.4" y="40.192"/>
      <point x="1782" y="40.192" type="curve" smooth="yes"/>
      <point x="2607.6" y="40.192"/>
      <point x="3277.81" y="710.4"/>
      <point x="3277.81" y="1536" type="curve" smooth="yes"/>
      <point x="3277.81" y="2361.6"/>
      <point x="2607.6" y="3031.81"/>
      <point x="1782" y="3031.81" type="curve" smooth="yes"/>
      <point x="956.4" y="3031.81"/>
      <point x="285.216" y="2361.6"/>
    </contour>
    <component base="C" xScale="0.6" yScale="0.6" xOffset="781.12" yOffset="614"/>
  </outline>
</glyph>
<glyph name="guillemotleft" format="2">
  <advance width="1509"/>
  <unicode hex="00AB"/>
  <outline>
    <contour>
      <point x="1102" y="776" type="line"/>
      <point x="1410" y="310" type="line"/>
      <point x="1390" y="290" type="line"/>
      <point x="610" y="760" type="line"/>
      <point x="610" y="790" type="line"/>
      <point x="1390" y="1260" type="line"/>
      <point x="1410" y="1240" type="line"/>
    </contour>
    <contour>
      <point x="502" y="776" type="line"/>
      <point x="850" y="310" type="line"/>
      <point x="830" y="290" type="line"/>
      <point x="50" y="760" type="line"/>
      <point x="50" y="790" type="line"/>
      <point x="830" y="1260" type="line"/>
      <point x="850" y="1240" type="line"/>
    </contour>
  </outline>
</glyph>
<glyph name="registered" format="2">
  <advance width="1739"/>
  <unicode hex="00AE"/>
  <outline>
    <contour>
      <point x="100" y="750" type="curve" smooth="yes"/>
      <point x="100" y="1176"/>
      <point x="444" y="1520"/>
      <point x="870" y="1520" type="curve" smooth="yes"/>
      <point x="1296" y="1520"/>
      <point x="1640" y="1176"/>
      <point x="1640" y="750" type="curve" smooth="yes"/>
      <point x="1640" y="324"/>
      <point x="1296" y="-20"/>
      <point x="870" y="-20" type="curve" smooth="yes"/>
      <point x="444" y="-20"/>
      <point x="100" y="324"/>
    </contour>
    <contour>
      <point x="139" y="750" type="curve" smooth="yes"/>
      <point x="139" y="347"/>
      <point x="467" y="20"/>
      <point x="870" y="20" type="curve" smooth="yes"/>
      <point x="1273" y="20"/>
      <point x="1600" y="347"/>
      <point x="1600" y="750" type="curve" smooth="yes"/>
      <point x="1600" y="1153"/>
      <point x="1273" y="1480"/>
      <point x="870" y="1480" type="curve" smooth="yes"/>
      <point x="467" y="1480"/>
      <point x="139" y="1153"/>
    </contour>
    <component base="R" xScale="0.6" yScale="0.6" xOffset="416" yOffset="296"/>
  </outline>
</glyph>
<glyph name="acute" format="2">
  <advance width="849"/>
  <unicode hex="00B4"/>
  <outline>
    <contour>
      <point x="550" y="1360" type="curve" smooth="yes"/>
      <point x="120" y="1440" type="line"/>
      <point x="114" y="1480" type="line"/>
      <point x="530" y="1656" type="line" smooth="yes"/>
      <point x="630" y="1698"/>
      <point x="740" y="1608"/>
      <point x="740" y="1510" type="curve" smooth="yes"/>
      <point x="740" y="1412"/>
      <point x="648" y="1342"/>
    </contour>
  </outline>
</glyph>
<glyph name="mu" format="2">
  <advance width="1329"/>
  <unicode hex="00B5"/>
  <outline>
    <contour>
      <point x="496" y="-246" type="curve" smooth="yes"/>
      <point x="562" y="-246"/>
      <point x="614" y="-304"/>
      <point x="614" y="-380" type="curve" smooth="yes"/>
      <point x="614" y="-458"/>
      <point x="572" y="-520"/>
      <point x="426" y="-520" type="curve" smooth="yes"/>
      <point x="286" y="-520"/>
      <point x="166" y="-422"/>
      <point x="166" y="-242" type="curve" smooth="yes"/>
      <point x="166" y="642" type="line"/>
      <point x="206" y="642" type="line"/>
      <point x="206" y="-242" type="line" smooth="yes"/>
      <point x="206" y="-407"/>
      <point x="309" y="-488"/>
      <point x="451" y="-482" type="curve"/>
      <point x="451" y="-482" type="line"/>
      <point x="400" y="-451"/>
      <point x="377" y="-418"/>
      <point x="377" y="-362" type="curve" smooth="yes"/>
      <point x="377" y="-296"/>
      <point x="430" y="-246"/>
    </contour>
    <component base="u"/>
  </outline>
</glyph>
<glyph name="cedilla" format="2">
  <advance width="1099"/>
  <unicode hex="00B8"/>
  <outline>
    <contour>
      <point x="578" y="-280" type="curve" smooth="yes"/>
      <point x="578" y="-174"/>
      <point x="495" y="-158"/>
      <point x="425" y="-158" type="curve"/>
      <point x="605" y="82" type="line"/>
      <point x="654" y="82" type="line"/>
      <point x="534" y="-78" type="line"/>
      <point x="758" y="-84"/>
      <point x="880" y="-128"/>
      <point x="880" y="-240" type="curve" smooth="yes"/>
      <point x="880" y="-340"/>
      <point x="784" y="-440"/>
      <point x="422" y="-440" type="curve"/>
      <point x="422" y="-400" type="line"/>
      <point x="540" y="-400"/>
      <point x="578" y="-358"/>
    </contour>
  </outline>
</glyph>
<glyph name="onehalf" format="2">
  <advance width="1459"/>
  <unicode hex="00BD"/>
  <outline>
    <contour>
      <point x="1050" y="1300" type="line"/>
      <point x="1089" y="1300" type="line"/>
      <point x="122" y="-200" type="line"/>
      <point x="83" y="-200" type="line"/>
    </contour>
    <component base="two" xScale="0.6" yScale="0.6" xOffset="682" yOffset="-202"/>
    <component base="one" xScale="0.6" yScale="0.6" xOffset="-16" yOffset="712"/>
  </outline>
</glyph>
<glyph name="AE" format="2">
  <advance width="4498"/>
  <unicode hex="00C6"/>
  <outline>
    <contour>
      <point x="2114.16" y="3072" type="line"/>
      <point x="2204.5" y="3072" type="line"/>
      <point x="452.752" y="0" type="line"/>
      <point x="352.176" y="0" type="line"/>
    </contour>
    <contour>
      <point x="61.488" y="80.704" type="line"/>
      <point x="962.512" y="80.704" type="line"/>
      <point x="962.512" y="0" type="line"/>
      <point x="61.488" y="0" type="line"/>
    </contour>
    <contour>
      <point x="1004" y="1043.84" type="line"/>
      <point x="2191.49" y="1043.84" type="line"/>
      <point x="2191.49" y="963.648" type="line"/>
      <point x="968.16" y="963.648" type="line"/>
    </contour>
    <contour>
      <point x="2150" y="3072" type="line"/>
      <point x="3031.49" y="3072" type="line"/>
      <point x="3031.49" y="0" type="line"/>
      <point x="2150" y="0" type="line"/>
    </contour>
    <contour>
      <point x="2150" y="3072" type="line"/>
      <point x="4335.33" y="3072" type="line"/>
      <point x="4335.33" y="2232" type="line"/>
      <point x="4254.62" y="2232" type="line"/>
      <point x="4132.11" y="2670"/>
      <point x="3756" y="2991.3"/>
      <point x="3318" y="2991.3" type="curve" smooth="yes"/>
      <point x="2150" y="2991.3" type="line"/>
    </contour>
    <contour>
      <point x="4376.82" y="0" type="line"/>
      <point x="1782" y="0" type="line"/>
      <point x="1782" y="80.704" type="line"/>
      <point x="3276.51" y="80.704" type="line" smooth="yes"/>
      <point x="3796.51" y="80.704"/>
      <point x="4173.6" y="402"/>
      <point x="4296.11" y="922" type="curve"/>
      <point x="4376.82" y="922" type="line"/>
    </contour>
    <contour>
      <point x="3681.6" y="1016" type="line"/>
      <point x="3559.09" y="1290"/>
      <point x="3305.49" y="1549.14"/>
      <point x="3072" y="1549.14" type="curve" smooth="yes"/>
      <point x="2826" y="1549.14" type="line"/>
      <point x="2826" y="1629.84" type="line"/>
      <point x="3072" y="1629.84" type="line" smooth="yes"/>
      <point x="3305.49" y="1629.84"/>
      <point x="3559.09" y="1868"/>
      <point x="3681.6" y="2142" type="curve"/>
      <point x="3762.3" y="2142" type="line"/>
      <point x="3762.3" y="1016" type="line"/>
    </contour>
  </outline>
</glyph>
<glyph name="Thorn" format="2">
  <advance width="3010"/>
  <unicode hex="00DE"/>
  <outline>
    <contour>
      <point x="430" y="3072" type="line"/>
      <point x="1310.51" y="3072" type="line"/>
      <point x="1310.51" y="0" type="line"/>
      <point x="430" y="0" type="line"/>
    </contour>
    <contour>
      <point x="61.488" y="80.704" type="line"/>
      <point x="1679.49" y="80.704" type="line"/>
      <point x="1679.49" y="0" type="line"/>
      <point x="61.488" y="0" type="line"/>
    </contour>
    <contour>
      <point x="61.488" y="3072" type="line"/>
      <point x="1679.49" y="3072" type="line"/>
      <point x="1679.49" y="2991.3" type="line"/>
      <point x="61.488" y="2991.3" type="line"/>
    </contour>
    <contour>
      <point x="1761.49" y="737.488" type="curve" smooth="yes"/>
      <point x="1228.51" y="737.488" type="line"/>
      <point x="1228.51" y="818.192" type="line"/>
      <point x="1474.51" y="818.192" type="line" smooth="yes"/>
      <point x="1868" y="818.192"/>
      <point x="1925.49" y="1232.98"/>
      <point x="1925.49" y="1597.49" type="curve" smooth="yes"/>
      <point x="1925.49" y="1962"/>
      <point x="1868" y="2377.3"/>
      <point x="1474.51" y="2377.3" type="curve" smooth="yes"/>
      <point x="1228.51" y="2377.3" type="line"/>
      <point x="1228.51" y="2458" type="line"/>
      <point x="1761.49" y="2458" type="line" smooth="yes"/>
      <point x="2502.98" y="2458"/>
      <point x="2867.49" y="2129.49"/>
      <point x="2867.49" y="1597.49" type="curve" smooth="yes"/>
      <point x="2867.49" y="1065.49"/>
      <point x="2502.98" y="737.488"/>
    </contour>
  </outline>
</glyph>
<glyph name="germandbls" format="2">
  <advance width="1721"/>
  <unicode hex="00DF"/>
  <outline>
    <contour>
      <point x="926" y="805" type="curve"/>
      <point x="926" y="830" type="line"/>
      <point x="1104" y="830"/>
      <point x="1140" y="1014"/>
      <point x="1140" y="1142" type="curve" smooth="yes"/>
      <point x="1140" y="1286"/>
      <point x="1094" y="1482"/>
      <point x="906" y="1482" type="curve" smooth="yes"/>
      <point x="678" y="1482"/>
      <point x="630" y="1246"/>
      <point x="630" y="962" type="curve" smooth="yes"/>
      <point x="630" y="0" type="line"/>
      <point x="210" y="0" type="line"/>
      <point x="210" y="982" type="line" smooth="yes"/>
      <point x="210" y="1368"/>
      <point x="600" y="1520"/>
      <point x="926" y="1520" type="curve" smooth="yes"/>
      <point x="1212" y="1520"/>
      <point x="1582" y="1408"/>
      <point x="1582" y="1162" type="curve" smooth="yes"/>
      <point x="1582" y="922"/>
      <point x="1328" y="805"/>
    </contour>
    <contour>
      <point x="30" y="39" type="line"/>
      <point x="792" y="39" type="line"/>
      <point x="792" y="0" type="line"/>
      <point x="30" y="0" type="line"/>
    </contour>
    <contour>
      <point x="1642" y="380" type="curve" smooth="yes"/>
      <point x="1642" y="100"/>
      <point x="1364" y="-20"/>
      <point x="1082" y="-20" type="curve" smooth="yes"/>
      <point x="860" y="-20"/>
      <point x="706" y="128"/>
      <point x="706" y="352" type="curve" smooth="yes"/>
      <point x="706" y="494"/>
      <point x="820" y="562"/>
      <point x="930" y="562" type="curve" smooth="yes"/>
      <point x="1030" y="562"/>
      <point x="1138" y="502"/>
      <point x="1138" y="370" type="curve" smooth="yes"/>
      <point x="1138" y="246"/>
      <point x="1022" y="180"/>
      <point x="924" y="180" type="curve" smooth="yes"/>
      <point x="856" y="180"/>
      <point x="787" y="215"/>
      <point x="770" y="268" type="curve"/>
      <point x="793" y="122"/>
      <point x="909" y="29"/>
      <point x="1032" y="29" type="curve" smooth="yes"/>
      <point x="1170" y="29"/>
      <point x="1200" y="192"/>
      <point x="1200" y="320" type="curve" smooth="yes"/>
      <point x="1200" y="508"/>
      <point x="1184" y="791"/>
      <point x="926" y="791" type="curve"/>
      <point x="926" y="816" type="line"/>
      <point x="1408" y="816"/>
      <point x="1642" y="640"/>
    </contour>
  </outline>
</glyph>
<glyph name="eth" format="2">
  <advance width="1319"/>
  <unicode hex="00F0"/>
  <outline>
    <contour>
      <point x="300" y="1260" type="line"/>
      <point x="1240" y="1260" type="line"/>
      <point x="1240" y="1221" type="line"/>
      <point x="300" y="1221" type="line"/>
    </contour>
    <contour>
      <point x="1220" y="620" type="curve" smooth="yes"/>
      <point x="1220" y="200"/>
      <point x="974" y="-20"/>
      <point x="632" y="-20" type="curve" smooth="yes"/>
      <point x="290" y="-20"/>
      <point x="60" y="200"/>
      <point x="60" y="500" type="curve" smooth="yes"/>
      <point x="60" y="840"/>
      <point x="316" y="990"/>
      <point x="558" y="990" type="curve" smooth="yes"/>
      <point x="751" y="990"/>
      <point x="794" y="814"/>
      <point x="794" y="560" type="curve"/>
      <point x="760" y="560" type="line"/>
      <point x="760" y="860"/>
      <point x="698" y="924"/>
      <point x="632" y="924" type="curve" smooth="yes"/>
      <point x="554" y="924"/>
      <point x="520" y="868"/>
      <point x="520" y="500" type="curve" smooth="yes"/>
      <point x="520" y="172"/>
      <point x="528" y="20"/>
      <point x="626" y="20" type="curve" smooth="yes"/>
      <point x="724" y="20"/>
      <point x="760" y="192"/>
      <point x="760" y="560" type="curve"/>
      <point x="766" y="701" type="line"/>
      <point x="766" y="1045"/>
      <point x="578" y="1483"/>
      <point x="210" y="1483" type="curve"/>
      <point x="210" y="1520" type="line"/>
      <point x="794" y="1520"/>
      <point x="1220" y="1142"/>
    </contour>
  </outline>
</glyph>
<glyph name="thorn" format="2">
  <advance width="1345"/>
  <unicode hex="00FE"/>
  <outline>
    <contour>
      <point x="516" y="460" type="curve" smooth="yes"/>
      <point x="516" y="764"/>
      <point x="647" y="938"/>
      <point x="862" y="938" type="curve" smooth="yes"/>
      <point x="1080" y="938"/>
      <point x="1286" y="760"/>
      <point x="1286" y="460" type="curve" smooth="yes"/>
      <point x="1286" y="160"/>
      <point x="1080" y="-20"/>
      <point x="862" y="-20" type="curve" smooth="yes"/>
      <point x="648" y="-20"/>
      <point x="516" y="156"/>
    </contour>
    <contour>
      <point x="550" y="460" type="curve" smooth="yes"/>
      <point x="550" y="188"/>
      <point x="671" y="53"/>
      <point x="759" y="53" type="curve" smooth="yes"/>
      <point x="827" y="53"/>
      <point x="856" y="160"/>
      <point x="856" y="460" type="curve" smooth="yes"/>
      <point x="856" y="760"/>
      <point x="827" y="865"/>
      <point x="759" y="865" type="curve" smooth="yes"/>
      <point x="671" y="865"/>
      <point x="550" y="730"/>
    </contour>
    <contour>
      <point x="30" y="-461" type="line"/>
      <point x="690" y="-461" type="line"/>
      <point x="690" y="-500" type="line"/>
      <point x="30" y="-500" type="line"/>
    </contour>
    <contour>
      <point x="170" y="1461" type="line"/>
      <point x="30" y="1461" type="line"/>
      <point x="30" y="1500" type="line"/>
      <point x="550" y="1500" type="line"/>
      <point x="550" y="-500" type="line"/>
      <point x="170" y="-500" type="line"/>
    </contour>
  </outline>
</glyph>
<glyph name="dotlessi" format="2">
  <advance width="739"/>
  <unicode hex="0131"/>
  <outline>
    <contour>
      <point x="40" y="39" type="line"/>
      <point x="700" y="39" type="line"/>
      <point x="700" y="0" type="line"/>
      <point x="40" y="0" type="line"/>
    </contour>
    <contour>
      <point x="180" y="881" type="line"/>
      <point x="40" y="881" type="line"/>
      <point x="40" y="920" type="line"/>
      <point x="560" y="920" type="line"/>
      <point x="560" y="0" type="line"/>
      <point x="180" y="0" type="line"/>
    </contour>
  </outline>
</glyph>
<glyph name="kgreenlandic" format="2">
  <advance width="1391"/>
  <unicode hex="0138"/>
  <outline>
    <contour>
      <point x="1306" y="0" type="line"/>
      <point x="840" y="0" type="line"/>
      <point x="494" y="542" type="line"/>
      <point x="1078" y="920" type="line"/>
      <point x="1135" y="920" type="line"/>
      <point x="810" y="704" type="line"/>
    </contour>
    <contour>
      <point x="728" y="39" type="line"/>
      <point x="1382" y="39" type="line"/>
      <point x="1382" y="0" type="line"/>
      <point x="728" y="0" type="line"/>
    </contour>
    <contour>
      <point x="1254" y="881" type="line"/>
      <point x="808" y="881" type="line"/>
      <point x="808" y="920" type="line"/>
      <point x="1254" y="920" type="line"/>
    </contour>
    <contour>
      <point x="30" y="39" type="line"/>
      <point x="670" y="39" type="line"/>
      <point x="670" y="0" type="line"/>
      <point x="30" y="0" type="line"/>
    </contour>
    <contour>
      <point x="210" y="881" type="line"/>
      <point x="30" y="881" type="line"/>
      <point x="30" y="920" type="line"/>
      <point x="590" y="920" type="line"/>
      <point x="590" y="0" type="line"/>
      <point x="210" y="0" type="line"/>
    </contour>
  </outline>
</glyph>
<glyph name="lslash" format="2">
  <advance width="799"/>
  <unicode hex="0142"/>
  <outline>
    <contour>
      <point x="25" y="720" type="line"/>
      <point x="795" y="1160" type="line"/>
      <point x="795" y="1115" type="line"/>
      <point x="25" y="675" type="line"/>
    </contour>
    <component base="l"/>
  </outline>
</glyph>
<glyph name="uni0237" format="2">
  <advance width="733"/>
  <unicode hex="0237"/>
  <outline>
    <contour>
      <point x="590" y="920" type="line"/>
      <point x="590" y="-24" type="line" smooth="yes"/>
      <point x="590" y="-286"/>
      <point x="336" y="-520"/>
      <point x="36" y="-520" type="curve" smooth="yes"/>
      <point x="-166" y="-520"/>
      <point x="-330" y="-426"/>
      <point x="-330" y="-272" type="curve" smooth="yes"/>
      <point x="-330" y="-150"/>
      <point x="-236" y="-58"/>
      <point x="-116" y="-58" type="curve" smooth="yes"/>
      <point x="-6" y="-58"/>
      <point x="96" y="-126"/>
      <point x="96" y="-246" type="curve" smooth="yes"/>
      <point x="96" y="-366"/>
      <point x="18" y="-438"/>
      <point x="-130" y="-438" type="curve" smooth="yes"/>
      <point x="-136" y="-438"/>
      <point x="-144" y="-438"/>
      <point x="-144" y="-438" type="curve"/>
      <point x="-122" y="-448"/>
      <point x="-82" y="-472"/>
      <point x="6" y="-472" type="curve" smooth="yes"/>
      <point x="246" y="-472"/>
      <point x="210" y="-214"/>
      <point x="210" y="40" type="curve" smooth="yes"/>
      <point x="210" y="880" type="line"/>
      <point x="30" y="880" type="line"/>
      <point x="30" y="920" type="line"/>
    </contour>
  </outline>
</glyph>
<glyph name="circumflex" format="2">
  <advance width="929"/>
  <unicode hex="02C6"/>
  <outline>
    <contour>
      <point x="464" y="1350" type="line"/>
      <point x="120" y="1200" type="line"/>
      <point x="100" y="1220" type="line"/>
      <point x="360" y="1540" type="line"/>
      <point x="570" y="1540" type="line"/>
      <point x="830" y="1220" type="line"/>
      <point x="810" y="1200" type="line"/>
    </contour>
  </outline>
</glyph>
<glyph name="caron" format="2">
  <advance width="929"/>
  <unicode hex="02C7"/>
  <outline>
    <contour>
      <point x="466" y="1430" type="line"/>
      <point x="810" y="1580" type="line"/>
      <point x="830" y="1560" type="line"/>
      <point x="570" y="1240" type="line"/>
      <point x="360" y="1240" type="line"/>
      <point x="100" y="1560" type="line"/>
      <point x="120" y="1580" type="line"/>
    </contour>
  </outline>
</glyph>
<glyph name="breve" format="2">
  <advance width="1310"/>
  <unicode hex="02D8"/>
  <outline>
    <contour>
      <point x="204.192" y="3108.51" type="line"/>
      <point x="204.192" y="2928.51"/>
      <point x="434" y="2888"/>
      <point x="655.488" y="2888" type="curve" smooth="yes"/>
      <point x="876.976" y="2888"/>
      <point x="1107.3" y="2928.51"/>
      <point x="1107.3" y="3108.51" type="curve"/>
      <point x="1188" y="3108.51" type="line"/>
      <point x="1188" y="2572"/>
      <point x="983.488" y="2334.51"/>
      <point x="655.488" y="2334.51" type="curve" smooth="yes"/>
      <point x="327.488" y="2334.51"/>
      <point x="122.512" y="2572"/>
      <point x="122.512" y="3108.51" type="curve"/>
    </contour>
  </outline>
</glyph>
<glyph name="ogonek" format="2">
  <advance width="1099"/>
  <unicode hex="02DB"/>
  <outline>
    <contour>
      <point x="826" y="-266" type="line"/>
      <point x="796" y="-322"/>
      <point x="758" y="-412"/>
      <point x="556" y="-412" type="curve" smooth="yes"/>
      <point x="394" y="-412"/>
      <point x="280" y="-360"/>
      <point x="280" y="-240" type="curve" smooth="yes"/>
      <point x="280" y="-80"/>
      <point x="511" y="51"/>
      <point x="693" y="101" type="curve"/>
      <point x="703" y="73" type="line"/>
      <point x="681" y="59"/>
      <point x="626" y="-24"/>
      <point x="626" y="-160" type="curve" smooth="yes"/>
      <point x="626" y="-281"/>
      <point x="665" y="-328"/>
      <point x="713" y="-328" type="curve" smooth="yes"/>
      <point x="751" y="-328"/>
      <point x="770" y="-296"/>
      <point x="794" y="-251" type="curve"/>
    </contour>
  </outline>
</glyph>
<glyph name="tilde" format="2">
  <advance width="895"/>
  <unicode hex="02DC"/>
  <outline>
    <contour>
      <point x="238" y="1278" type="curve" smooth="yes"/>
      <point x="173" y="1278"/>
      <point x="139" y="1224"/>
      <point x="139" y="1180" type="curve"/>
      <point x="100" y="1180" type="line"/>
      <point x="100" y="1350"/>
      <point x="140" y="1514"/>
      <point x="298" y="1514" type="curve" smooth="yes"/>
      <point x="478" y="1514"/>
      <point x="521" y="1356"/>
      <point x="658" y="1356" type="curve" smooth="yes"/>
      <point x="723" y="1356"/>
      <point x="756" y="1410"/>
      <point x="756" y="1454" type="curve"/>
      <point x="796" y="1454" type="line"/>
      <point x="796" y="1264"/>
      <point x="796" y="1120"/>
      <point x="618" y="1120" type="curve" smooth="yes"/>
      <point x="444" y="1120"/>
      <point x="389" y="1278"/>
    </contour>
  </outline>
</glyph>
<glyph name="uni1E9E" format="2">
  <advance width="1961"/>
  <unicode hex="1E9E"/>
  <outline>
    <contour>
      <point x="30" y="40" type="line"/>
      <point x="830" y="40" type="line"/>
      <point x="830" y="0" type="line"/>
      <point x="30" y="0" type="line"/>
    </contour>
    <contour>
      <point x="1386" y="742" type="line"/>
      <point x="1283" y="789"/>
      <point x="1156" y="811"/>
      <point x="986" y="830" type="curve"/>
      <point x="1454" y="1424" type="line"/>
      <point x="1398" y="1444"/>
      <point x="1314" y="1470"/>
      <point x="1186" y="1470" type="curve" smooth="yes"/>
      <point x="758" y="1470"/>
      <point x="650" y="1266"/>
      <point x="650" y="862" type="curve" smooth="yes"/>
      <point x="650" y="0" type="line"/>
      <point x="210" y="0" type="line"/>
      <point x="210" y="882" type="line" smooth="yes"/>
      <point x="210" y="1328"/>
      <point x="640" y="1520"/>
      <point x="1186" y="1520" type="curve" smooth="yes"/>
      <point x="1492" y="1520"/>
      <point x="1742" y="1388"/>
      <point x="1822" y="1302" type="curve"/>
    </contour>
    <contour>
      <point x="868" y="208" type="curve"/>
      <point x="906" y="152"/>
      <point x="1032" y="34"/>
      <point x="1202" y="34" type="curve" smooth="yes"/>
      <point x="1390" y="34"/>
      <point x="1440" y="172"/>
      <point x="1440" y="420" type="curve" smooth="yes"/>
      <point x="1440" y="628"/>
      <point x="1324" y="792"/>
      <point x="986" y="792" type="curve"/>
      <point x="986" y="830" type="line"/>
      <point x="1628" y="830"/>
      <point x="1882" y="690"/>
      <point x="1882" y="430" type="curve" smooth="yes"/>
      <point x="1882" y="150"/>
      <point x="1604" y="-20"/>
      <point x="1282" y="-20" type="curve" smooth="yes"/>
      <point x="938" y="-20"/>
      <point x="770" y="188"/>
      <point x="770" y="372" type="curve" smooth="yes"/>
      <point x="770" y="514"/>
      <point x="870" y="612"/>
      <point x="1000" y="612" type="curve" smooth="yes"/>
      <point x="1120" y="612"/>
      <point x="1208" y="524"/>
      <point x="1208" y="392" type="curve" smooth="yes"/>
      <point x="1208" y="268"/>
      <point x="1102" y="180"/>
      <point x="984" y="180" type="curve" smooth="yes"/>
      <point x="922" y="180"/>
      <point x="876" y="206"/>
    </contour>
  </outline>
</glyph>
<glyph name="perthousand" format="2">
  <advance width="6348"/>
  <unicode hex="2030"/>
  <outline>
    <contour>
      <point x="5058.51" y="860" type="curve" smooth="yes"/>
      <point x="5058.51" y="197.472"/>
      <point x="5124" y="5.376"/>
      <point x="5222" y="5.376" type="curve" smooth="yes"/>
      <point x="5320" y="5.376"/>
      <point x="5386" y="197.472"/>
      <point x="5386" y="860" type="curve" smooth="yes"/>
      <point x="5386" y="1522.53"/>
      <point x="5320" y="1715.6"/>
      <point x="5222" y="1715.6" type="curve" smooth="yes"/>
      <point x="5124" y="1715.6"/>
      <point x="5058.51" y="1522.53"/>
    </contour>
    <contour>
      <point x="4239.49" y="860" type="curve" smooth="yes"/>
      <point x="4239.49" y="1446"/>
      <point x="4759.49" y="1761.49"/>
      <point x="5222" y="1761.49" type="curve" smooth="yes"/>
      <point x="5684.51" y="1761.49"/>
      <point x="6205.49" y="1446"/>
      <point x="6205.49" y="860" type="curve" smooth="yes"/>
      <point x="6205.49" y="274"/>
      <point x="5602.51" y="-40.512"/>
      <point x="5222" y="-40.512" type="curve" smooth="yes"/>
      <point x="4759.49" y="-40.512"/>
      <point x="4239.49" y="274"/>
    </contour>
    <contour>
      <point x="2970" y="860" type="curve" smooth="yes"/>
      <point x="2970" y="197.472"/>
      <point x="3035.49" y="5.376"/>
      <point x="3133.49" y="5.376" type="curve" smooth="yes"/>
      <point x="3231.49" y="5.376"/>
      <point x="3297.49" y="197.472"/>
      <point x="3297.49" y="860" type="curve" smooth="yes"/>
      <point x="3297.49" y="1522.53"/>
      <point x="3231.49" y="1715.6"/>
      <point x="3133.49" y="1715.6" type="curve" smooth="yes"/>
      <point x="3035.49" y="1715.6"/>
      <point x="2970" y="1522.53"/>
    </contour>
    <contour>
      <point x="2150" y="860" type="curve" smooth="yes"/>
      <point x="2150" y="1446"/>
      <point x="2670.98" y="1761.49"/>
      <point x="3133.49" y="1761.49" type="curve" smooth="yes"/>
      <point x="3596" y="1761.49"/>
      <point x="4116" y="1446"/>
      <point x="4116" y="860" type="curve" smooth="yes"/>
      <point x="4116" y="274"/>
      <point x="3514" y="-40.512"/>
      <point x="3133.49" y="-40.512" type="curve" smooth="yes"/>
      <point x="2670.98" y="-40.512"/>
      <point x="2150" y="274"/>
    </contour>
    <contour>
      <point x="3159.36" y="3072" type="line"/>
      <point x="3215.49" y="3072" type="line"/>
      <point x="1100.64" y="0" type="line"/>
      <point x="1044" y="0" type="line"/>
    </contour>
    <contour>
      <point x="962.512" y="2212" type="curve" smooth="yes"/>
      <point x="962.512" y="1549.47"/>
      <point x="1028" y="1356.4"/>
      <point x="1126" y="1356.4" type="curve" smooth="yes"/>
      <point x="1224" y="1356.4"/>
      <point x="1290" y="1549.47"/>
      <point x="1290" y="2212" type="curve" smooth="yes"/>
      <point x="1290" y="2874.53"/>
      <point x="1224" y="3066.62"/>
      <point x="1126" y="3066.62" type="curve" smooth="yes"/>
      <point x="1028" y="3066.62"/>
      <point x="962.512" y="2874.53"/>
    </contour>
    <contour>
      <point x="143.488" y="2212" type="curve" smooth="yes"/>
      <point x="143.488" y="2798"/>
      <point x="663.488" y="3112.51"/>
      <point x="1126" y="3112.51" type="curve" smooth="yes"/>
      <point x="1588.51" y="3112.51"/>
      <point x="2109.49" y="2798"/>
      <point x="2109.49" y="2212" type="curve" smooth="yes"/>
      <point x="2109.49" y="1626"/>
      <point x="1506.51" y="1310.51"/>
      <point x="1126" y="1310.51" type="curve" smooth="yes"/>
      <point x="663.488" y="1310.51"/>
      <point x="143.488" y="1626"/>
    </contour>
  </outline>
</glyph>
<glyph name="uni203D" format="2">
  <advance width="1439"/>
  <unicode hex="203D"/>
  <outline>
    <contour>
      <point x="892" y="1108" type="curve" smooth="yes"/>
      <point x="870" y="916"/>
      <point x="714" y="696"/>
      <point x="714" y="556" type="curve"/>
      <point x="674" y="556" type="line"/>
      <point x="674" y="696"/>
      <point x="558" y="916"/>
      <point x="536" y="1108" type="curve" smooth="yes"/>
      <point x="534" y="1122"/>
      <point x="534" y="1134"/>
      <point x="534" y="1146" type="curve" smooth="yes"/>
      <point x="534" y="1202"/>
      <point x="580" y="1296"/>
      <point x="714" y="1296" type="curve" smooth="yes"/>
      <point x="848" y="1296"/>
      <point x="894" y="1202"/>
      <point x="894" y="1146" type="curve" smooth="yes"/>
      <point x="894" y="1134"/>
      <point x="894" y="1122"/>
    </contour>
    <contour>
      <point x="120" y="1142" type="curve" smooth="yes"/>
      <point x="120" y="1326"/>
      <point x="328" y="1520"/>
      <point x="712" y="1520" type="curve" smooth="yes"/>
      <point x="1014" y="1520"/>
      <point x="1340" y="1380"/>
      <point x="1340" y="1100" type="curve" smooth="yes"/>
      <point x="1340" y="820"/>
      <point x="976" y="670"/>
      <point x="694" y="670" type="curve"/>
      <point x="694" y="698" type="line"/>
      <point x="848" y="720"/>
      <point x="998" y="934"/>
      <point x="998" y="1120" type="curve" smooth="yes"/>
      <point x="998" y="1308"/>
      <point x="884" y="1458"/>
      <point x="666" y="1458" type="curve" smooth="yes"/>
      <point x="398" y="1458"/>
      <point x="262" y="1348"/>
      <point x="222" y="1292" type="curve"/>
      <point x="230" y="1294"/>
      <point x="272" y="1320"/>
      <point x="334" y="1320" type="curve" smooth="yes"/>
      <point x="452" y="1320"/>
      <point x="508" y="1200"/>
      <point x="508" y="1130" type="curve" smooth="yes"/>
      <point x="508" y="990"/>
      <point x="404" y="918"/>
      <point x="314" y="918" type="curve" smooth="yes"/>
      <point x="214" y="918"/>
      <point x="120" y="1000"/>
    </contour>
    <component base="period" xOffset="358"/>
  </outline>
</glyph>
<glyph name="uniFB00" format="2">
  <advance width="1539"/>
  <unicode hex="FB00"/>
  <outline>
    <contour>
      <point x="20" y="40" type="line"/>
      <point x="1480" y="40" type="line"/>
      <point x="1480" y="0" type="line"/>
      <point x="20" y="0" type="line"/>
    </contour>
    <contour>
      <point x="20" y="920" type="line"/>
      <point x="1520" y="920" type="line"/>
      <point x="1520" y="880" type="line"/>
      <point x="20" y="880" type="line"/>
    </contour>
    <contour>
      <point x="968" y="1328" type="curve"/>
      <point x="942" y="1348"/>
      <point x="888" y="1374"/>
      <point x="814" y="1374" type="curve" smooth="yes"/>
      <point x="654" y="1374"/>
      <point x="560" y="1234"/>
      <point x="560" y="980" type="curve" smooth="yes"/>
      <point x="560" y="0" type="line"/>
      <point x="200" y="0" type="line"/>
      <point x="200" y="924" type="line" smooth="yes"/>
      <point x="200" y="1226"/>
      <point x="454" y="1420"/>
      <point x="794" y="1420" type="curve" smooth="yes"/>
      <point x="976" y="1420"/>
      <point x="1120" y="1296"/>
      <point x="1120" y="1162" type="curve" smooth="yes"/>
      <point x="1120" y="1040"/>
      <point x="1046" y="958"/>
      <point x="926" y="958" type="curve" smooth="yes"/>
      <point x="816" y="958"/>
      <point x="714" y="1026"/>
      <point x="714" y="1146" type="curve" smooth="yes"/>
      <point x="714" y="1266"/>
      <point x="792" y="1344"/>
      <point x="900" y="1344" type="curve" smooth="yes"/>
      <point x="948" y="1344"/>
      <point x="968" y="1328"/>
    </contour>
    <contour>
      <point x="1632" y="1428" type="curve"/>
      <point x="1606" y="1448"/>
      <point x="1548" y="1478"/>
      <point x="1474" y="1478" type="curve" smooth="yes"/>
      <point x="1314" y="1478"/>
      <point x="1240" y="1334"/>
      <point x="1240" y="1080" type="curve" smooth="yes"/>
      <point x="1240" y="0" type="line"/>
      <point x="880" y="0" type="line"/>
      <point x="880" y="1024" type="line" smooth="yes"/>
      <point x="880" y="1326"/>
      <point x="1134" y="1520"/>
      <point x="1454" y="1520" type="curve" smooth="yes"/>
      <point x="1636" y="1520"/>
      <point x="1760" y="1396"/>
      <point x="1760" y="1262" type="curve" smooth="yes"/>
      <point x="1760" y="1140"/>
      <point x="1686" y="1058"/>
      <point x="1566" y="1058" type="curve" smooth="yes"/>
      <point x="1456" y="1058"/>
      <point x="1354" y="1126"/>
      <point x="1354" y="1246" type="curve" smooth="yes"/>
      <point x="1354" y="1366"/>
      <point x="1432" y="1444"/>
      <point x="1540" y="1444" type="curve" smooth="yes"/>
      <point x="1588" y="1444"/>
      <point x="1632" y="1428"/>
    </contour>
  </outline>
</glyph>
<glyph name="uniFB01" format="2">
  <advance width="1399"/>
  <unicode hex="FB01"/>
  <outline>
    <contour>
      <point x="200" y="1024" type="line" smooth="yes"/>
      <point x="200" y="1346"/>
      <point x="454" y="1520"/>
      <point x="854" y="1520" type="curve" smooth="yes"/>
      <point x="1076" y="1520"/>
      <point x="1220" y="1396"/>
      <point x="1220" y="1262" type="curve" smooth="yes"/>
      <point x="1220" y="1140"/>
      <point x="1146" y="1058"/>
      <point x="1026" y="1058" type="curve" smooth="yes"/>
      <point x="916" y="1058"/>
      <point x="814" y="1126"/>
      <point x="814" y="1246" type="curve" smooth="yes"/>
      <point x="814" y="1366"/>
      <point x="892" y="1440"/>
      <point x="1000" y="1440" type="curve" smooth="yes"/>
      <point x="1048" y="1440"/>
      <point x="1074" y="1424"/>
      <point x="1074" y="1424" type="curve"/>
      <point x="1042" y="1444"/>
      <point x="968" y="1478"/>
      <point x="854" y="1478" type="curve" smooth="yes"/>
      <point x="634" y="1478"/>
      <point x="560" y="1334"/>
      <point x="560" y="1080" type="curve" smooth="yes"/>
      <point x="560" y="0" type="line"/>
      <point x="200" y="0" type="line"/>
    </contour>
    <contour>
      <point x="20" y="40" type="line"/>
      <point x="1360" y="40" type="line"/>
      <point x="1360" y="0" type="line"/>
      <point x="20" y="0" type="line"/>
    </contour>
    <contour>
      <point x="840" y="880" type="line"/>
      <point x="20" y="880" type="line"/>
      <point x="20" y="920" type="line"/>
      <point x="1220" y="920" type="line"/>
      <point x="1220" y="0" type="line"/>
      <point x="840" y="0" type="line"/>
    </contour>
  </outline>
</glyph>
<glyph name="uniFB02" format="2">
  <advance width="1559"/>
  <unicode hex="FB02"/>
  <outline>
    <contour>
      <point x="20" y="40" type="line"/>
      <point x="1530" y="40" type="line"/>
      <point x="1530" y="0" type="line"/>
      <point x="20" y="0" type="line"/>
    </contour>
    <contour>
      <point x="20" y="920" type="line"/>
      <point x="840" y="920" type="line"/>
      <point x="840" y="880" type="line"/>
      <point x="20" y="880" type="line"/>
    </contour>
    <contour>
      <point x="970" y="1460" type="line"/>
      <point x="1350" y="1540" type="line"/>
      <point x="1350" y="0" type="line"/>
      <point x="970" y="0" type="line"/>
    </contour>
    <contour>
      <point x="954" y="1426" type="curve"/>
      <point x="924" y="1446"/>
      <point x="868" y="1480"/>
      <point x="794" y="1480" type="curve" smooth="yes"/>
      <point x="634" y="1480"/>
      <point x="560" y="1334"/>
      <point x="560" y="1080" type="curve" smooth="yes"/>
      <point x="560" y="0" type="line"/>
      <point x="200" y="0" type="line"/>
      <point x="200" y="1024" type="line" smooth="yes"/>
      <point x="200" y="1326"/>
      <point x="454" y="1520"/>
      <point x="774" y="1520" type="curve" smooth="yes"/>
      <point x="956" y="1520"/>
      <point x="1080" y="1396"/>
      <point x="1080" y="1262" type="curve" smooth="yes"/>
      <point x="1080" y="1140"/>
      <point x="1006" y="1058"/>
      <point x="886" y="1058" type="curve" smooth="yes"/>
      <point x="776" y="1058"/>
      <point x="674" y="1126"/>
      <point x="674" y="1246" type="curve" smooth="yes"/>
      <point x="674" y="1366"/>
      <point x="752" y="1444"/>
      <point x="860" y="1444" type="curve" smooth="yes"/>
      <point x="908" y="1444"/>
      <point x="954" y="1426"/>
    </contour>
  </outline>
</glyph>
<glyph name="uniFB03" format="2">
  <advance width="2039"/>
  <unicode hex="FB03"/>
  <outline>
    <contour>
      <point x="840" y="1024" type="line" smooth="yes"/>
      <point x="840" y="1346"/>
      <point x="1094" y="1520"/>
      <point x="1494" y="1520" type="curve" smooth="yes"/>
      <point x="1716" y="1520"/>
      <point x="1860" y="1396"/>
      <point x="1860" y="1262" type="curve" smooth="yes"/>
      <point x="1860" y="1140"/>
      <point x="1786" y="1058"/>
      <point x="1666" y="1058" type="curve" smooth="yes"/>
      <point x="1556" y="1058"/>
      <point x="1454" y="1126"/>
      <point x="1454" y="1246" type="curve" smooth="yes"/>
      <point x="1454" y="1366"/>
      <point x="1532" y="1440"/>
      <point x="1640" y="1440" type="curve" smooth="yes"/>
      <point x="1688" y="1440"/>
      <point x="1714" y="1424"/>
      <point x="1714" y="1424" type="curve"/>
      <point x="1682" y="1444"/>
      <point x="1608" y="1478"/>
      <point x="1494" y="1478" type="curve" smooth="yes"/>
      <point x="1274" y="1478"/>
      <point x="1200" y="1334"/>
      <point x="1200" y="1080" type="curve" smooth="yes"/>
      <point x="1200" y="0" type="line"/>
      <point x="840" y="0" type="line"/>
    </contour>
    <contour>
      <point x="20" y="40" type="line"/>
      <point x="2000" y="40" type="line"/>
      <point x="2000" y="0" type="line"/>
      <point x="20" y="0" type="line"/>
    </contour>
    <contour>
      <point x="200" y="924" type="line" smooth="yes"/>
      <point x="200" y="1224"/>
      <point x="454" y="1420"/>
      <point x="794" y="1420" type="curve" smooth="yes"/>
      <point x="976" y="1420"/>
      <point x="1120" y="1296"/>
      <point x="1120" y="1162" type="curve" smooth="yes"/>
      <point x="1120" y="1040"/>
      <point x="1046" y="958"/>
      <point x="926" y="958" type="curve" smooth="yes"/>
      <point x="816" y="958"/>
      <point x="714" y="1026"/>
      <point x="714" y="1146" type="curve" smooth="yes"/>
      <point x="714" y="1266"/>
      <point x="792" y="1344"/>
      <point x="900" y="1344" type="curve" smooth="yes"/>
      <point x="948" y="1344"/>
      <point x="968" y="1328"/>
      <point x="968" y="1328" type="curve"/>
      <point x="942" y="1348"/>
      <point x="888" y="1374"/>
      <point x="814" y="1374" type="curve" smooth="yes"/>
      <point x="654" y="1374"/>
      <point x="560" y="1234"/>
      <point x="560" y="980" type="curve" smooth="yes"/>
      <point x="560" y="0" type="line"/>
      <point x="200" y="0" type="line"/>
    </contour>
    <contour>
      <point x="1480" y="880" type="line"/>
      <point x="20" y="880" type="line"/>
      <point x="20" y="920" type="line"/>
      <point x="1860" y="920" type="line"/>
      <point x="1860" y="0" type="line"/>
      <point x="1480" y="0" type="line"/>
    </contour>
  </outline>
</glyph>
<glyph name="uniFB04" format="2">
  <advance width="2239"/>
  <unicode hex="FB04"/>
  <outline>
    <contour>
      <point x="20" y="40" type="line"/>
      <point x="2210" y="40" type="line"/>
      <point x="2210" y="0" type="line"/>
      <point x="20" y="0" type="line"/>
    </contour>
    <contour>
      <point x="20" y="920" type="line"/>
      <point x="1520" y="920" type="line"/>
      <point x="1520" y="880" type="line"/>
      <point x="20" y="880" type="line"/>
    </contour>
    <contour>
      <point x="1650" y="1460" type="line"/>
      <point x="2030" y="1540" type="line"/>
      <point x="2030" y="0" type="line"/>
      <point x="1650" y="0" type="line"/>
    </contour>
    <contour>
      <point x="968" y="1328" type="curve"/>
      <point x="942" y="1348"/>
      <point x="888" y="1374"/>
      <point x="814" y="1374" type="curve" smooth="yes"/>
      <point x="654" y="1374"/>
      <point x="560" y="1234"/>
      <point x="560" y="980" type="curve" smooth="yes"/>
      <point x="560" y="0" type="line"/>
      <point x="200" y="0" type="line"/>
      <point x="200" y="924" type="line" smooth="yes"/>
      <point x="200" y="1224"/>
      <point x="454" y="1420"/>
      <point x="794" y="1420" type="curve" smooth="yes"/>
      <point x="976" y="1420"/>
      <point x="1120" y="1296"/>
      <point x="1120" y="1162" type="curve" smooth="yes"/>
      <point x="1120" y="1040"/>
      <point x="1046" y="958"/>
      <point x="926" y="958" type="curve" smooth="yes"/>
      <point x="816" y="958"/>
      <point x="714" y="1026"/>
      <point x="714" y="1146" type="curve" smooth="yes"/>
      <point x="714" y="1266"/>
      <point x="792" y="1344"/>
      <point x="900" y="1344" type="curve" smooth="yes"/>
      <point x="948" y="1344"/>
      <point x="968" y="1328"/>
    </contour>
    <contour>
      <point x="1634" y="1426" type="curve"/>
      <point x="1604" y="1446"/>
      <point x="1548" y="1480"/>
      <point x="1474" y="1480" type="curve" smooth="yes"/>
      <point x="1314" y="1480"/>
      <point x="1240" y="1334"/>
      <point x="1240" y="1080" type="curve" smooth="yes"/>
      <point x="1240" y="0" type="line"/>
      <point x="880" y="0" type="line"/>
      <point x="880" y="1024" type="line" smooth="yes"/>
      <point x="880" y="1326"/>
      <point x="1134" y="1520"/>
      <point x="1454" y="1520" type="curve" smooth="yes"/>
      <point x="1636" y="1520"/>
      <point x="1760" y="1396"/>
      <point x="1760" y="1262" type="curve" smooth="yes"/>
      <point x="1760" y="1140"/>
      <point x="1686" y="1058"/>
      <point x="1566" y="1058" type="curve" smooth="yes"/>
      <point x="1456" y="1058"/>
      <point x="1354" y="1126"/>
      <point x="1354" y="1246" type="curve" smooth="yes"/>
      <point x="1354" y="1366"/>
      <point x="1432" y="1444"/>
      <point x="1540" y="1444" type="curve" smooth="yes"/>
      <point x="1588" y="1444"/>
      <point x="1634" y="1426"/>
    </contour>
  </outline>
</glyph>
<glyph name="J.alt" format="2">
  <advance width="1451"/>
  <outline>
    <contour>
      <point x="532" y="1500" type="line"/>
      <point x="1422" y="1500" type="line"/>
      <point x="1422" y="1460" type="line"/>
      <point x="532" y="1460" type="line"/>
    </contour>
    <contour>
      <point x="792" y="1500" type="line"/>
      <point x="1222" y="1500" type="line"/>
      <point x="1222" y="340" type="line"/>
      <point x="1102" y="100"/>
      <point x="924" y="-60"/>
      <point x="542" y="-60" type="curve" smooth="yes"/>
      <point x="248" y="-60"/>
      <point x="30" y="150"/>
      <point x="30" y="370" type="curve" smooth="yes"/>
      <point x="30" y="554"/>
      <point x="164" y="660"/>
      <point x="304" y="660" type="curve" smooth="yes"/>
      <point x="434" y="660"/>
      <point x="536" y="564"/>
      <point x="536" y="422" type="curve" smooth="yes"/>
      <point x="536" y="292"/>
      <point x="436" y="184"/>
      <point x="290" y="184" type="curve" smooth="yes"/>
      <point x="210" y="184"/>
      <point x="156" y="218"/>
      <point x="104" y="260" type="curve"/>
      <point x="142" y="122"/>
      <point x="310" y="-16"/>
      <point x="502" y="-16" type="curve" smooth="yes"/>
      <point x="684" y="-16"/>
      <point x="792" y="100"/>
      <point x="792" y="380" type="curve" smooth="yes"/>
    </contour>
  </outline>
</glyph>
<glyph name="fj.lig" format="2">
  <advance width="1353"/>
  <outline>
    <contour>
      <point x="20" y="40" type="line"/>
      <point x="740" y="40" type="line"/>
      <point x="740" y="0" type="line"/>
      <point x="20" y="0" type="line"/>
    </contour>
    <contour>
      <point x="1220" y="-24" type="line" smooth="yes"/>
      <point x="1220" y="-286"/>
      <point x="966" y="-520"/>
      <point x="666" y="-520" type="curve" smooth="yes"/>
      <point x="464" y="-520"/>
      <point x="300" y="-426"/>
      <point x="300" y="-272" type="curve" smooth="yes"/>
      <point x="300" y="-150"/>
      <point x="394" y="-58"/>
      <point x="514" y="-58" type="curve" smooth="yes"/>
      <point x="624" y="-58"/>
      <point x="726" y="-126"/>
      <point x="726" y="-246" type="curve" smooth="yes"/>
      <point x="726" y="-366"/>
      <point x="648" y="-438"/>
      <point x="500" y="-438" type="curve" smooth="yes"/>
      <point x="494" y="-438"/>
      <point x="486" y="-438"/>
      <point x="486" y="-438" type="curve"/>
      <point x="508" y="-448"/>
      <point x="548" y="-472"/>
      <point x="636" y="-472" type="curve" smooth="yes"/>
      <point x="876" y="-472"/>
      <point x="840" y="-214"/>
      <point x="840" y="40" type="curve" smooth="yes"/>
      <point x="840" y="880" type="line"/>
      <point x="20" y="880" type="line"/>
      <point x="20" y="920" type="line"/>
      <point x="1220" y="920" type="line"/>
    </contour>
    <contour>
      <point x="1074" y="1424" type="curve"/>
      <point x="1042" y="1444"/>
      <point x="968" y="1478"/>
      <point x="854" y="1478" type="curve" smooth="yes"/>
      <point x="634" y="1478"/>
      <point x="560" y="1334"/>
      <point x="560" y="1080" type="curve" smooth="yes"/>
      <point x="560" y="0" type="line"/>
      <point x="200" y="0" type="line"/>
      <point x="200" y="1024" type="line" smooth="yes"/>
      <point x="200" y="1346"/>
      <point x="454" y="1520"/>
      <point x="854" y="1520" type="curve" smooth="yes"/>
      <point x="1076" y="1520"/>
      <point x="1220" y="1396"/>
      <point x="1220" y="1262" type="curve" smooth="yes"/>
      <point x="1220" y="1140"/>
      <point x="1146" y="1058"/>
      <point x="1026" y="1058" type="curve" smooth="yes"/>
      <point x="916" y="1058"/>
      <point x="814" y="1126"/>
      <point x="814" y="1246" type="curve" smooth="yes"/>
      <point x="814" y="1366"/>
      <point x="892" y="1440"/>
      <point x="1000" y="1440" type="curve" smooth="yes"/>
      <point x="1048" y="1440"/>
      <point x="1074" y="1424"/>
    </contour>
  </outline>
</glyph>
